<?xml version="1.0" standalone="no"?>
<!DOCTYPE svg PUBLIC "-//W3C//DTD SVG 20010904//EN"
 "http://www.w3.org/TR/2001/REC-SVG-20010904/DTD/svg10.dtd">
<svg version="1.0" xmlns="http://www.w3.org/2000/svg"
 width="1248.000000pt" height="1248.000000pt" viewBox="0 0 1248.000000 1248.000000"
 preserveAspectRatio="xMidYMid meet">
<metadata>
Created by potrace 1.14, written by Peter Selinger 2001-2017
</metadata>
<g transform="translate(0.000000,1248.000000) scale(0.100000,-0.100000)"
fill="#9448BC" stroke="none">
<path d="M4940 10308 c-54 -7 -128 -14 -240 -23 -31 -2 -91 -12 -135 -21 -44
-9 -87 -18 -95 -19 -8 -2 -15 -4 -15 -5 0 -1 -8 -3 -19 -5 -46 -9 -122 -28
-131 -34 -5 -3 -14 -6 -20 -6 -19 -1 -85 -27 -85 -34 0 -3 7 -17 16 -29 11
-16 22 -21 42 -17 15 3 40 7 55 10 25 5 28 3 25 -17 -3 -20 -16 -26 -113 -51
-60 -15 -117 -29 -125 -32 -108 -31 -136 -40 -138 -47 -2 -4 -10 -8 -17 -8 -8
0 -34 -14 -59 -30 -57 -39 -105 -59 -171 -71 -29 -5 -93 -30 -141 -54 -49 -25
-93 -45 -98 -45 -5 0 -50 -20 -100 -44 -117 -56 -162 -76 -171 -76 -4 0 -19
-8 -33 -18 -15 -10 -43 -25 -62 -32 -19 -7 -43 -20 -52 -28 -10 -8 -18 -12
-18 -9 0 3 -33 -12 -74 -33 -41 -21 -77 -36 -80 -33 -3 4 -6 2 -6 -4 0 -6 -10
-13 -23 -17 -12 -3 -42 -22 -66 -43 -25 -20 -63 -47 -85 -59 -23 -11 -58 -30
-79 -42 -32 -19 -38 -20 -43 -7 -4 8 -3 22 0 31 5 14 1 15 -29 10 -19 -4 -35
-5 -35 -3 0 19 77 77 102 77 6 0 30 14 55 30 51 35 50 35 70 14 14 -14 17 -13
32 6 55 72 73 85 117 85 28 0 44 4 44 13 0 6 5 12 10 12 6 0 10 6 9 13 -6 45
6 53 95 61 28 3 48 13 69 36 39 42 77 57 93 35 10 -14 15 -13 41 9 17 14 33
23 36 20 17 -17 82 10 119 48 34 36 64 53 131 75 11 3 56 24 100 45 75 37 194
80 257 94 29 6 65 11 132 18 56 6 80 17 107 52 15 19 18 30 11 39 -8 10 -24 8
-73 -7 -73 -24 -275 -87 -297 -93 -39 -10 -223 -85 -236 -96 -8 -6 -14 -8 -14
-4 0 4 -6 3 -12 -3 -12 -10 -192 -91 -213 -96 -5 -1 -28 -10 -49 -20 -22 -9
-50 -19 -63 -22 -13 -4 -23 -10 -23 -15 0 -5 -6 -9 -13 -9 -8 0 -65 -26 -128
-58 -121 -63 -155 -81 -289 -157 -47 -27 -110 -62 -140 -78 -30 -17 -84 -48
-120 -70 -56 -35 -97 -60 -168 -102 -51 -31 -253 -168 -266 -180 -8 -8 -19
-15 -24 -15 -6 0 -12 -3 -14 -8 -1 -4 -37 -32 -78 -62 -41 -30 -88 -67 -105
-82 -16 -15 -33 -28 -38 -28 -4 0 -15 -8 -25 -17 -9 -10 -67 -58 -127 -107
-273 -222 -427 -366 -615 -575 -41 -46 -85 -94 -97 -107 -13 -13 -23 -25 -23
-28 0 -3 -16 -23 -35 -43 -19 -21 -41 -45 -49 -53 -22 -25 -160 -211 -211
-285 -62 -91 -168 -239 -175 -245 -6 -6 -41 -56 -83 -118 -17 -26 -36 -50 -41
-54 -6 -4 -7 -8 -3 -8 4 0 -3 -15 -16 -32 -49 -66 -51 -119 -7 -185 60 -88 76
-109 112 -144 68 -67 142 -73 251 -19 82 40 114 70 157 146 19 33 56 88 82
124 27 36 54 73 62 82 7 10 31 38 54 62 23 25 42 49 42 55 0 5 3 11 8 13 4 2
16 21 27 43 11 21 31 51 45 65 14 15 38 44 55 66 16 21 69 77 116 124 84 83
159 170 159 184 0 4 6 14 13 21 6 8 23 29 37 46 35 46 65 73 145 137 39 30 81
66 95 79 90 83 129 116 155 130 25 13 136 97 182 138 6 5 30 26 53 45 23 19
55 48 72 63 78 70 149 131 172 146 68 45 283 202 299 218 22 22 57 26 57 6 0
-8 -15 -38 -34 -66 -18 -29 -51 -81 -72 -117 -21 -36 -42 -66 -46 -68 -5 -2
-8 -8 -8 -13 0 -5 -20 -40 -45 -79 -25 -39 -45 -72 -45 -75 0 -2 -27 -47 -60
-99 -33 -53 -60 -100 -60 -106 0 -5 -4 -10 -9 -10 -5 0 -11 -8 -15 -17 -3 -10
-15 -34 -27 -53 -12 -19 -27 -44 -33 -55 -6 -11 -20 -33 -30 -50 -42 -67 -50
-80 -51 -85 0 -3 -10 -19 -22 -36 -12 -17 -20 -34 -16 -38 3 -3 1 -6 -5 -6 -7
0 -12 -7 -12 -15 0 -8 -4 -15 -10 -15 -5 0 -10 -5 -10 -10 0 -6 -30 -62 -66
-126 -81 -143 -574 -1138 -574 -1159 0 -8 -4 -15 -10 -15 -5 0 -10 -7 -10 -16
0 -9 -6 -28 -14 -42 -8 -15 -22 -44 -31 -64 -21 -49 -49 -65 -78 -45 -39 26
-74 63 -82 85 -3 12 -11 22 -16 22 -5 0 -9 7 -9 15 0 8 -4 15 -10 15 -5 0 -10
5 -10 10 0 12 -41 73 -53 78 -4 2 -7 12 -7 22 0 10 -4 22 -10 25 -5 3 -10 32
-10 64 0 44 -7 73 -31 121 -45 93 -54 74 -54 -122 0 -144 2 -167 23 -222 42
-110 76 -179 117 -235 55 -76 81 -121 89 -153 4 -20 -10 -79 -50 -200 -31 -95
-58 -180 -61 -188 -3 -8 -7 -22 -9 -30 -2 -8 -7 -23 -13 -35 -22 -45 -113
-348 -125 -415 -2 -14 -5 -25 -6 -25 -2 0 -10 -37 -16 -75 -2 -19 -7 -43 -10
-52 -6 -21 -12 -52 -19 -103 -4 -22 -15 -77 -26 -123 -10 -46 -22 -98 -25
-115 -5 -32 -7 -45 -21 -142 -15 -108 -6 -336 17 -415 5 -16 7 -30 5 -30 -3 0
0 -12 6 -27 5 -14 11 -38 13 -52 10 -78 137 -382 176 -421 3 -3 22 -31 43 -63
54 -83 82 -115 157 -176 14 -11 30 -25 37 -31 7 -5 16 -10 21 -10 4 0 17 -8
28 -18 43 -39 143 -101 170 -107 176 -36 261 -45 314 -32 37 8 90 29 91 35 3
23 9 61 14 88 12 55 -29 66 -175 50 -125 -15 -158 -14 -200 5 -22 10 -40 23
-40 28 0 6 -13 29 -29 53 -15 24 -31 54 -35 68 -59 207 -68 250 -68 335 -1 50
2 108 6 130 3 22 9 96 12 165 5 121 34 292 73 435 10 39 73 235 85 265 3 8 2
21 -3 29 -8 12 -12 12 -26 -2 -22 -22 -32 -21 -38 2 -3 15 9 31 45 63 27 23
56 54 63 68 16 33 56 148 61 180 13 70 56 191 106 300 11 25 27 62 34 83 7 21
19 46 27 57 13 18 14 18 52 1 22 -10 63 -43 90 -73 54 -58 57 -62 124 -153 46
-61 73 -92 172 -197 31 -33 103 -109 160 -171 126 -135 441 -449 608 -606 66
-63 143 -135 170 -160 107 -102 310 -291 371 -347 35 -32 80 -74 100 -91 19
-18 55 -49 79 -70 25 -21 54 -47 66 -58 38 -36 148 -129 280 -235 71 -58 137
-112 146 -120 38 -34 70 -61 204 -170 77 -63 145 -119 151 -125 6 -5 26 -21
44 -35 19 -14 45 -34 59 -46 14 -12 91 -65 171 -118 80 -53 194 -130 253 -171
60 -41 110 -75 111 -75 1 0 49 -26 107 -58 127 -71 284 -146 399 -192 57 -23
224 -79 250 -85 8 -1 33 -8 55 -13 41 -11 54 -14 138 -32 112 -23 213 -32 382
-34 99 -2 185 0 190 3 6 3 19 6 30 7 73 7 128 16 180 30 33 8 67 17 75 19 8 2
32 11 52 19 21 9 41 16 45 17 5 0 28 9 52 20 24 10 47 19 51 19 4 0 35 25 69
55 34 30 79 64 99 74 56 29 98 84 132 175 17 44 35 89 40 98 14 24 13 40 -5
76 -14 26 -50 51 -60 40 -10 -11 -45 -90 -45 -101 0 -8 -16 -46 -35 -84 -29
-58 -42 -73 -77 -91 -114 -56 -175 -72 -291 -77 -74 -4 -93 -1 -120 16 -46 28
-103 43 -202 53 -50 5 -159 24 -205 36 -19 5 -64 17 -100 25 -187 47 -192 49
-535 230 -114 59 -246 135 -255 145 -7 8 -310 210 -316 210 -7 0 -48 35 -115
100 -95 92 -136 127 -172 148 -18 9 -34 20 -37 23 -3 3 -19 11 -37 18 -17 7
-58 40 -91 74 -34 34 -72 71 -86 82 -13 11 -44 35 -68 54 -24 19 -56 51 -73
72 -16 21 -38 41 -47 44 -9 3 -19 14 -22 23 -7 22 -39 56 -106 112 -29 25 -58
50 -64 55 -6 6 -31 26 -56 46 -25 21 -63 53 -85 73 -22 20 -54 41 -72 47 -17
5 -43 25 -56 43 -37 48 -282 294 -349 349 -31 26 -69 67 -85 92 -15 24 -39 49
-53 56 -50 26 -110 73 -110 86 0 7 -4 13 -10 13 -5 0 -9 4 -7 8 6 20 -53 84
-106 116 -34 20 -54 37 -47 41 14 8 -16 45 -36 45 -21 0 -102 89 -140 153 -19
32 -34 61 -34 64 0 6 -39 53 -104 123 -23 25 -66 74 -96 110 -30 36 -69 78
-85 95 -28 28 -114 127 -143 166 -11 14 -7 19 25 36 21 11 70 30 108 44 39 13
72 27 75 30 9 13 140 79 140 71 0 -4 4 -2 8 3 7 10 235 125 248 125 4 0 31 16
60 35 29 19 57 35 62 35 6 0 12 3 14 8 4 10 185 122 197 122 5 0 11 4 13 8 4
10 158 102 223 133 76 36 211 116 300 177 44 31 136 94 205 140 128 87 361
251 370 262 3 3 30 25 60 50 30 25 60 49 66 55 26 22 115 99 219 187 61 51
126 107 145 123 98 84 454 453 521 540 35 45 36 46 76 102 21 28 47 64 57 78
24 32 42 62 56 95 6 14 42 88 80 165 112 230 134 322 133 555 -1 148 -7 204
-30 295 -8 33 -16 67 -18 75 -13 58 -83 210 -97 210 -4 0 -8 7 -8 15 0 8 -4
15 -10 15 -5 0 -13 12 -17 28 -10 36 -10 39 -12 60 -1 9 -14 31 -29 47 -15 17
-36 44 -46 60 -67 104 -165 180 -350 269 -47 23 -97 57 -125 85 -81 81 -285
148 -472 154 -30 1 -79 -1 -109 -5z m-167 -54 c18 -2 44 -6 60 -10 61 -13 14
-46 -101 -69 -45 -9 -95 -19 -110 -22 -15 -3 -36 -7 -47 -8 -11 -2 -20 -4 -20
-5 0 -2 -19 -5 -85 -16 -25 -4 -52 -9 -60 -10 -8 -2 -21 -2 -27 1 -17 6 1 47
29 64 20 12 30 15 92 26 15 3 42 12 60 19 17 7 51 12 76 12 30 -1 51 4 64 16
10 9 23 15 28 12 5 -3 23 -7 41 -10z m434 1 c6 -21 -14 -35 -53 -36 -96 -4
-150 37 -56 43 79 5 105 3 109 -7z m-87 -111 c0 -2 -12 -4 -26 -4 -14 0 -23 4
-20 9 6 8 46 4 46 -5z m-980 -183 c0 -11 -72 -41 -84 -34 -4 3 9 14 30 23 46
21 54 23 54 11z m-126 -40 c3 -5 -1 -11 -9 -15 -15 -6 -29 7 -18 18 9 9 21 8
27 -3z m1881 -28 c9 -12 10 -22 2 -34 -9 -15 -13 -14 -38 9 -16 14 -26 29 -23
33 9 15 46 10 59 -8z m-1965 -6 c0 -7 -13 -18 -30 -24 -16 -6 -30 -7 -30 -2 0
5 0 12 -1 17 0 4 10 10 23 14 35 9 38 9 38 -5z m1370 -20 c44 3 86 -1 130 -12
36 -9 76 -19 90 -22 14 -3 30 -6 35 -7 6 -2 33 -6 60 -11 87 -13 140 -61 150
-137 3 -18 8 -55 12 -83 9 -64 8 -275 -1 -340 -19 -130 -161 -410 -315 -619
-36 -49 -76 -101 -89 -115 -13 -14 -41 -46 -61 -71 -39 -48 -253 -265 -286
-290 -100 -75 -181 -142 -264 -218 -55 -52 -148 -122 -160 -122 -6 0 -11 -4
-11 -10 0 -5 -6 -10 -12 -10 -7 0 -26 -11 -42 -25 -16 -14 -33 -25 -38 -25
-10 0 -67 -39 -83 -56 -5 -6 -26 -22 -45 -35 -19 -13 -40 -28 -46 -34 -27 -23
-51 -41 -77 -54 -15 -8 -27 -18 -27 -23 0 -4 -4 -8 -10 -8 -8 0 -96 -56 -110
-70 -20 -21 -221 -148 -280 -178 -19 -9 -36 -20 -38 -24 -2 -5 -7 -8 -12 -8
-5 0 -82 -44 -172 -98 -327 -197 -683 -398 -758 -428 -8 -4 -46 -21 -85 -39
-38 -18 -95 -43 -125 -55 -71 -28 -85 -34 -145 -60 -27 -12 -54 -23 -60 -24
-5 -1 -20 -8 -32 -14 -13 -7 -23 -9 -23 -5 0 4 -4 3 -8 -4 -9 -14 -102 -24
-102 -11 0 4 5 8 11 8 5 0 8 4 4 9 -3 5 -1 12 3 15 5 3 9 18 8 33 -1 16 13 48
31 77 28 41 38 67 32 79 -4 6 41 85 56 97 9 8 23 31 32 51 10 26 26 43 51 55
46 22 64 44 50 61 -6 7 -19 13 -29 13 -37 0 -27 19 41 71 72 56 80 69 56 88
-33 28 5 88 85 137 60 36 66 43 50 60 -5 5 -12 19 -16 31 -5 18 -1 25 20 35
24 11 38 38 44 88 0 6 14 10 29 10 39 0 41 4 30 53 -8 39 -7 44 17 64 14 13
33 23 41 23 8 0 14 4 14 9 0 5 9 12 19 16 25 8 32 27 36 103 3 51 9 69 33 100
17 20 40 44 53 52 58 39 103 77 113 95 15 28 65 93 99 130 16 16 41 55 57 86
16 31 48 77 72 102 66 69 77 93 72 162 -3 42 1 66 11 82 20 30 26 90 14 141
-15 68 -99 177 -167 217 -15 9 -39 33 -53 53 -22 30 -39 41 -88 55 -33 9 -67
17 -76 17 -8 0 -15 7 -15 15 0 18 44 65 61 65 6 0 48 22 93 49 72 43 189 104
208 109 5 1 51 22 103 47 52 25 97 45 101 45 3 0 41 18 85 39 66 33 156 66
204 76 6 2 101 41 210 88 212 90 275 112 340 121 79 11 162 29 280 62 33 9 71
18 85 20 34 4 119 15 150 19 58 8 115 17 118 20 1 1 23 -2 50 -6 26 -4 76 -5
112 -2z m-2844 -587 c22 -9 25 -13 14 -23 -10 -9 -13 -9 -17 1 -3 6 -11 12
-19 12 -8 0 -14 5 -14 10 0 12 2 12 36 0z m-326 -254 c-19 -13 -36 -23 -37
-22 -1 1 0 12 4 24 4 17 13 22 36 22 l31 0 -34 -24z m-128 -82 c4 -3 -12 -22
-35 -42 -23 -20 -44 -40 -47 -43 -9 -11 -50 -20 -60 -14 -6 4 18 28 52 55 62
47 79 56 90 44z m3621 -451 c-40 -15 -105 -79 -128 -127 -14 -29 -25 -57 -25
-61 0 -4 -9 -17 -20 -29 -33 -34 -74 -89 -89 -118 -7 -14 -24 -29 -37 -32 -15
-4 -33 -23 -47 -49 -52 -100 -102 -168 -128 -173 -14 -3 -50 -31 -80 -61 -30
-30 -64 -59 -76 -64 -12 -4 -32 -27 -44 -51 -25 -48 -33 -56 -105 -92 -28 -14
-94 -68 -148 -119 -53 -51 -111 -101 -129 -112 -39 -22 -86 -66 -87 -80 0 -15
-36 -35 -94 -53 -59 -18 -62 -19 -77 -21 -17 -2 -1 -18 36 -36 34 -16 38 -16
63 1 15 9 46 36 70 60 44 44 65 55 116 59 28 3 46 18 46 41 0 14 26 37 49 42
90 22 106 -13 34 -77 -68 -59 -71 -62 -143 -116 -36 -27 -67 -52 -70 -55 -3
-3 -12 -9 -22 -15 -9 -5 -42 -30 -75 -53 -32 -24 -164 -106 -293 -182 -129
-76 -278 -166 -330 -199 -52 -33 -97 -60 -100 -58 -3 1 -19 -8 -37 -21 -17
-12 -35 -22 -39 -22 -4 0 -17 -9 -28 -19 -30 -27 -186 -123 -186 -114 0 5 -4
4 -8 -2 -4 -5 -29 -21 -56 -35 -87 -44 -100 -52 -166 -100 -36 -27 -85 -54
-110 -61 -53 -15 -51 -14 -70 -21 -8 -3 -33 -11 -55 -17 -33 -9 -40 -15 -40
-34 1 -13 4 -28 8 -34 13 -20 -8 -22 -32 -4 -22 17 -27 17 -73 3 -41 -14 -51
-14 -58 -3 -4 8 -6 20 -4 26 8 20 61 54 94 60 39 7 84 35 73 46 -8 8 -51 17
-90 18 -13 1 -23 4 -23 9 0 4 43 31 95 61 52 29 95 55 95 56 0 2 3 10 6 19 7
19 -10 21 -28 3 -7 -7 -38 -26 -68 -43 -30 -16 -57 -31 -60 -34 -3 -3 -30 -16
-60 -30 -30 -14 -57 -28 -60 -31 -3 -3 -20 -14 -37 -23 -64 -32 -30 -31 53 2
l52 21 -2 -29 c0 -23 -10 -35 -43 -55 -32 -21 -41 -32 -39 -51 2 -13 6 -27 9
-31 4 -3 7 -9 7 -13 0 -6 -49 -32 -60 -31 -3 0 -16 -7 -29 -16 -24 -15 -26
-14 -70 33 -25 27 -66 74 -91 104 -25 30 -48 56 -51 58 -22 10 12 42 74 71 40
18 108 50 152 71 44 20 98 45 120 55 157 69 374 184 445 236 47 34 141 91 210
126 144 75 183 96 190 104 7 7 100 69 104 69 14 0 340 210 344 221 2 5 8 7 13
3 5 -3 9 -1 9 3 0 5 15 17 33 28 39 23 274 192 301 217 11 10 23 18 26 18 4 0
18 9 31 21 13 12 44 35 69 52 25 17 56 41 70 54 14 13 28 23 31 23 3 0 18 10
32 23 27 23 41 33 115 89 23 18 42 36 42 40 0 4 4 8 9 8 20 0 154 129 306 295
142 155 179 191 214 210 17 8 31 19 31 23 0 4 26 21 57 37 32 17 78 47 102 67
24 21 47 35 52 33 4 -3 11 0 14 6 5 8 10 7 19 -1 8 -9 8 -14 -1 -17z m-193 -3
c-6 -11 -15 -20 -20 -20 -6 0 -10 9 -10 20 0 13 7 20 20 20 18 0 19 -3 10 -20z
m26 -357 c7 -35 -5 -45 -63 -56 -44 -9 -42 2 13 71 29 36 40 33 50 -15z m-529
-160 c-9 -9 -19 -14 -23 -11 -10 10 6 28 24 28 15 0 15 -1 -1 -17z m273 -177
c0 -7 -16 -17 -35 -23 -37 -12 -38 -7 -8 29 16 18 43 14 43 -6z m-77 -65 c-3
-14 -16 -20 -43 -23 -44 -4 -42 8 4 28 41 18 45 17 39 -5z m-2590 -3 c7 -21
-36 -86 -60 -91 -12 -2 -25 -2 -27 0 -8 8 17 57 42 81 26 25 38 28 45 10z
m2070 -24 c-7 -19 -23 -7 -23 18 0 17 3 18 14 8 8 -6 12 -18 9 -26z m-2393
-19 c-14 -17 -50 -20 -50 -5 0 6 6 10 14 10 7 0 20 7 27 16 9 11 15 12 17 5 2
-7 -2 -18 -8 -26z m-65 -138 c-9 -17 -18 -39 -20 -48 -7 -35 -48 -113 -72
-138 -28 -30 -53 -73 -58 -103 -9 -43 -28 -94 -43 -110 -8 -10 -12 -18 -8 -18
3 0 -1 -11 -10 -24 -19 -29 -25 -86 -11 -103 5 -7 6 -13 2 -13 -4 0 -2 -7 5
-15 16 -19 2 -37 -32 -42 -90 -11 -109 -29 -98 -88 5 -25 10 -30 33 -28 28 2
32 -3 18 -26 -6 -9 -21 -12 -43 -9 -19 2 -39 -1 -44 -7 -56 -63 -61 -74 -57
-112 4 -38 3 -40 -46 -70 -71 -45 -81 -25 -31 67 16 30 53 102 82 160 29 58
56 107 61 108 4 2 7 8 7 13 0 4 15 40 34 78 19 38 31 72 28 75 -3 3 0 6 6 6 7
0 12 4 12 10 0 31 94 200 123 221 24 18 98 184 88 198 -2 1 16 23 40 48 39 39
44 42 47 23 2 -11 -4 -35 -13 -53z m2307 43 c-23 -22 -72 -44 -79 -36 -3 3 2
15 11 28 9 12 16 18 16 13 0 -5 5 -4 12 3 7 7 23 12 37 12 l25 0 -22 -20z
m-159 -91 c-34 -58 -62 -79 -135 -102 -9 -3 -22 -18 -30 -33 -12 -24 -138
-111 -223 -154 -17 -8 -35 -20 -42 -26 -7 -7 -46 -30 -87 -53 -41 -22 -78 -45
-81 -51 -4 -6 -11 -8 -16 -5 -5 4 -9 2 -9 -4 0 -9 -40 -27 -49 -22 -2 2 -7 -1
-10 -6 -15 -21 -57 -40 -75 -33 -17 6 -16 9 15 32 72 54 390 248 406 248 3 0
14 6 22 14 9 7 46 29 84 49 70 37 123 74 194 139 52 46 60 48 36 7z m-1920 15
c25 -9 8 -49 -29 -66 -19 -9 -34 -13 -32 -10 27 54 42 82 44 82 1 0 9 -2 17
-6z m2527 -18 c0 -19 -27 -46 -48 -47 -9 0 -27 -2 -39 -5 -17 -3 -21 1 -20 16
1 18 15 30 45 36 8 1 16 5 20 8 11 12 42 6 42 -8z m-2611 -168 c-6 -11 -29
-71 -50 -131 -22 -61 -45 -114 -52 -119 -6 -4 -8 -8 -3 -8 6 0 -2 -12 -16 -27
-25 -28 -50 -68 -54 -88 -13 -71 -40 -137 -71 -170 -10 -11 -33 -39 -51 -62
-26 -33 -39 -41 -62 -41 -17 1 -30 5 -30 9 0 13 34 84 43 87 4 2 7 8 7 14 0 6
14 28 31 49 17 22 40 63 51 92 48 127 91 207 120 219 26 12 27 16 22 55 -4 35
-3 43 10 43 16 0 66 59 66 79 0 7 4 10 9 6 5 -3 12 -1 16 5 13 20 26 10 14
-12z m1169 -349 c47 -3 48 -4 27 -25 -8 -9 -15 -13 -15 -10 0 3 -16 -2 -35
-10 -46 -19 -52 -18 -59 9 -6 21 18 52 34 42 3 -2 25 -5 48 -6z m-116 -81 l25
-12 -44 -24 c-35 -18 -47 -21 -59 -11 -19 16 -18 36 4 48 23 14 43 13 74 -1z
m-171 -88 c5 0 9 -4 9 -9 0 -11 -47 -61 -58 -61 -5 0 -15 -6 -21 -14 -11 -13
-152 -86 -166 -86 -11 0 -100 -42 -105 -50 -7 -11 -54 -35 -62 -32 -5 1 -8 -2
-8 -8 0 -5 -5 -10 -10 -10 -6 0 -47 -18 -93 -41 -108 -54 -270 -118 -290 -115
-8 1 -22 8 -31 15 -15 12 -14 15 10 27 14 8 30 14 35 14 8 0 83 32 149 63 14
6 45 24 70 38 25 15 70 35 100 45 30 10 58 21 61 26 3 5 12 10 20 11 8 2 29
13 47 25 18 13 32 20 32 16 0 -3 6 -1 13 5 8 6 16 8 19 5 9 -8 96 39 173 95
39 28 76 48 83 46 8 -3 18 -5 23 -5z m-1774 -814 c-3 -25 -24 -56 -37 -56 -4
0 -10 11 -13 25 -3 18 2 30 17 40 29 21 37 19 33 -9z m-43 -112 c26 -10 18
-21 -15 -22 -25 -1 -28 2 -18 14 13 16 12 16 33 8z m263 -11 c-5 -9 -20 -42
-67 -148 -38 -87 -56 -103 -81 -73 -23 26 -16 62 17 99 13 14 24 31 24 38 0 7
9 30 21 50 17 31 27 37 56 39 19 2 33 -1 30 -5z m-314 -123 c-3 -10 -11 -25
-19 -31 -19 -15 -18 -48 2 -70 16 -17 15 -20 -15 -48 l-32 -30 -9 24 c-5 13
-7 34 -4 47 3 13 9 40 13 60 10 45 27 68 51 68 13 0 17 -6 13 -20z m171 -169
c21 -23 14 -38 -19 -41 -36 -4 -42 0 -39 23 1 12 3 30 3 40 1 21 25 12 55 -22z
m-258 -70 c-12 -19 -24 -12 -19 10 4 13 9 17 15 11 6 -6 7 -15 4 -21z m217
-98 c-2 -59 -39 -150 -65 -159 -44 -14 -46 14 -8 139 22 73 25 78 49 75 25 -3
26 -6 24 -55z m-239 41 c15 -6 15 -8 -1 -19 -21 -16 -34 -10 -26 10 6 17 6 17
27 9z m-30 -135 c-8 -14 -34 -11 -34 4 0 8 3 17 7 20 9 9 34 -13 27 -24z m171
-214 c-13 -47 -22 -85 -19 -85 3 0 0 -8 -5 -19 -6 -10 -13 -33 -16 -52 -3 -19
-15 -43 -25 -54 -16 -17 -19 -35 -18 -95 0 -50 -5 -88 -16 -115 -17 -40 -43
-75 -56 -75 -13 0 -8 144 6 178 7 17 11 32 9 32 -3 0 0 12 6 28 6 15 13 36 15
47 2 11 18 67 35 125 17 58 32 113 32 123 1 9 5 17 10 17 4 0 6 4 3 9 -7 11
10 19 41 20 l21 1 -23 -85z m1895 -335 c-14 -9 -40 -3 -40 9 0 16 14 20 33 10
15 -9 17 -13 7 -19z m296 -274 c34 -23 75 -49 92 -58 17 -9 31 -24 31 -35 -1
-10 2 -28 6 -40 6 -18 2 -25 -16 -32 -33 -12 -42 -6 -70 41 -33 55 -88 118
-105 118 -16 0 -37 37 -29 50 7 12 7 12 91 -44z m-2349 -23 c-4 -69 -27 -80
-39 -19 -7 31 -5 43 8 58 28 30 34 21 31 -39z m-37 -177 c-15 -15 -33 4 -19
20 10 12 14 12 20 2 5 -7 4 -17 -1 -22z m2622 -27 c20 -22 44 -40 52 -40 9 -1
21 -3 26 -4 6 -1 17 -3 25 -4 22 -2 49 -37 51 -65 2 -52 25 -85 65 -97 21 -7
45 -22 53 -33 27 -42 136 -144 192 -181 16 -10 61 -51 99 -91 61 -62 74 -71
98 -67 15 3 30 9 33 14 3 5 10 9 16 9 10 0 7 -29 -6 -61 -5 -10 1 -19 18 -27
13 -6 34 -19 45 -28 19 -17 19 -19 4 -36 -21 -24 -33 -23 -73 7 -36 27 -69 32
-87 14 -8 -8 -15 -3 -24 17 -8 16 -35 38 -64 53 -53 27 -61 44 -36 74 13 16
12 20 -6 45 -49 66 -119 91 -173 62 -10 -5 -21 -10 -23 -10 -2 0 -12 30 -22
68 -31 115 -38 125 -94 145 -37 13 -51 23 -51 37 0 18 -15 33 -35 36 -5 0 -15
2 -22 2 -6 1 -10 14 -8 28 1 14 -4 31 -11 39 -8 7 -14 18 -14 24 0 5 -9 12
-19 16 -22 7 -91 80 -91 96 0 20 45 -3 82 -42z m-17 -117 c-8 -9 -25 20 -18
31 3 5 10 2 15 -7 6 -10 7 -20 3 -24z m12 -141 c-11 -31 -27 -32 -27 -2 0 20
20 42 31 36 4 -3 2 -18 -4 -34z m76 -110 c-2 -3 -10 4 -17 15 -11 14 -11 21
-3 26 11 7 29 -31 20 -41z m244 -191 c-11 -28 -27 -41 -27 -21 0 5 -3 16 -6
24 -5 14 5 20 38 26 3 0 1 -12 -5 -29z m543 -240 c0 -21 -4 -28 -14 -24 -14 5
-41 53 -38 67 1 4 -3 7 -9 7 -5 0 -7 5 -4 10 4 6 18 2 36 -10 21 -15 29 -30
29 -50z m106 -84 c5 -14 12 -17 35 -12 19 4 29 1 30 -7 3 -27 4 -33 14 -48 6
-8 38 -35 73 -58 34 -24 62 -47 63 -50 0 -3 2 -14 4 -23 3 -14 0 -15 -23 -5
-69 29 -107 57 -210 153 l-76 72 19 28 18 28 23 -30 c13 -16 27 -37 30 -48z
m-218 23 c-17 -10 -38 1 -31 16 4 11 9 12 23 2 13 -7 15 -14 8 -18z m74 -23
c21 -5 29 -14 34 -42 3 -19 4 -37 1 -40 -11 -12 -87 17 -89 34 0 9 -2 24 -3
32 -2 21 4 30 18 25 7 -2 24 -6 39 -9z m110 -103 c10 -9 18 -22 18 -28 0 -7 7
-18 15 -25 33 -27 -2 -45 -45 -23 -14 7 -35 13 -46 13 -18 0 -20 5 -17 28 3
15 6 33 8 40 6 17 45 15 67 -5z m496 -132 c12 -11 22 -28 22 -39 0 -18 -3 -18
-52 -7 -28 6 -54 17 -56 23 -14 42 45 57 86 23z m-255 -87 l28 -26 -22 -19
c-20 -17 -25 -18 -43 -5 -25 16 -32 42 -16 61 17 20 21 19 53 -11z m353 -51
c-3 -3 -13 -3 -22 1 -13 5 -14 9 -3 22 11 14 13 14 22 -1 5 -9 6 -19 3 -22z
m-247 -17 c20 -22 21 -24 5 -21 -11 2 -22 4 -25 4 -9 1 -19 41 -10 41 4 0 18
-11 30 -24z m329 6 c2 -7 -3 -12 -12 -12 -9 0 -16 7 -16 16 0 17 22 14 28 -4z
m-117 -49 c27 -20 49 -42 48 -48 0 -5 -10 -32 -23 -59 l-22 -50 -22 24 c-27
29 -27 32 -2 55 11 10 20 22 20 26 0 12 -62 68 -82 74 -9 3 -19 12 -21 19 -9
24 49 1 104 -41z m332 -202 c48 -29 87 -57 87 -62 0 -12 -2 -12 -62 12 -29 12
-67 25 -84 30 -32 10 -98 62 -88 71 15 15 68 -3 147 -51z m217 -17 c0 -16 -16
-19 -25 -4 -8 13 4 32 16 25 5 -4 9 -13 9 -21z m281 -305 c23 -12 16 -29 -12
-29 -12 0 -19 7 -19 20 0 23 4 24 31 9z m163 -55 c5 -12 2 -15 -10 -10 -8 3
-20 6 -25 6 -6 0 -7 5 -4 10 10 15 32 12 39 -6z"/>
<path d="M5300 8235 c-8 -9 -8 -15 -2 -15 12 0 26 19 19 26 -2 2 -10 -2 -17
-11z"/>
<path d="M5086 7974 c-8 -22 -7 -34 3 -34 5 0 11 11 13 25 6 28 -6 34 -16 9z"/>
<path d="M4650 7580 c-13 -8 -13 -10 2 -10 9 0 20 5 23 10 8 13 -5 13 -25 0z"/>
<path d="M4357 7355 c-3 -7 3 -15 14 -18 11 -3 19 0 19 8 0 18 -27 27 -33 10z"/>
<path d="M4276 7163 c-3 -4 -12 -8 -19 -9 -7 -1 -31 -7 -55 -13 -40 -11 -42
-13 -37 -44 7 -40 7 -39 36 -28 31 12 116 101 97 101 -8 0 -18 -3 -22 -7z"/>
<path d="M3993 7095 c-11 -8 -23 -24 -26 -35 -5 -20 3 -26 17 -12 4 4 12 7 18
7 13 0 30 43 19 49 -4 3 -17 -1 -28 -9z"/>
<path d="M4103 7036 c-45 -16 -51 -26 -17 -26 16 0 40 9 54 20 28 22 13 24
-37 6z"/>
<path d="M3885 7020 c-3 -5 1 -10 10 -10 9 0 13 5 10 10 -3 6 -8 10 -10 10 -2
0 -7 -4 -10 -10z"/>
<path d="M3780 6849 c-47 -16 -86 -29 -87 -29 -25 1 -43 -12 -108 -74 -64 -63
-73 -75 -56 -81 11 -3 34 3 55 15 20 11 39 20 44 21 39 7 102 56 102 79 0 9
53 41 65 40 11 -1 62 29 74 44 17 21 11 20 -89 -15z"/>
<path d="M3440 6664 c0 -5 -14 -18 -32 -29 -18 -10 -44 -30 -58 -44 -63 -64
-109 -76 -136 -35 -22 33 -60 30 -58 -6 1 -14 2 -28 3 -32 1 -7 54 -38 67 -39
4 0 10 3 13 8 3 5 32 22 63 38 32 17 58 33 58 38 0 4 5 7 10 7 6 0 28 11 50
25 30 19 38 30 35 46 -5 23 -15 39 -15 23z"/>
<path d="M2980 6371 c-30 -27 -31 -28 -10 -34 24 -6 60 23 60 48 0 22 -15 18
-50 -14z"/>
<path d="M11474 10212 c-34 -14 -102 -56 -199 -122 -12 -8 -29 -23 -39 -32
-10 -10 -20 -18 -24 -18 -4 0 -21 -14 -39 -30 -18 -17 -35 -30 -38 -30 -3 0
-16 -10 -29 -22 -12 -13 -37 -35 -55 -49 -95 -78 -329 -306 -456 -444 -81 -88
-133 -145 -195 -215 -36 -40 -74 -83 -85 -95 -11 -12 -32 -37 -47 -56 -15 -19
-37 -46 -50 -60 -13 -15 -36 -44 -53 -65 -16 -20 -54 -67 -83 -103 -77 -95
-75 -93 -102 -131 -13 -19 -27 -37 -30 -40 -10 -8 -122 -168 -190 -270 -35
-52 -67 -96 -72 -98 -4 -2 -8 -8 -8 -12 0 -7 -161 -256 -271 -418 -16 -23 -29
-47 -29 -52 0 -6 -4 -10 -10 -10 -5 0 -10 -6 -10 -14 0 -8 -6 -21 -14 -28 -7
-8 -22 -29 -32 -47 -30 -54 -31 -55 -209 -332 -93 -145 -173 -265 -177 -267
-5 -2 -8 -7 -8 -12 0 -11 -63 -114 -72 -118 -5 -2 -8 -7 -8 -12 0 -6 -215
-378 -260 -450 -5 -8 -21 -37 -36 -65 -15 -27 -32 -53 -38 -57 -6 -4 -7 -8 -2
-8 5 0 4 -6 -2 -12 -17 -21 -162 -280 -162 -289 0 -5 -4 -9 -10 -9 -5 0 -10
-5 -10 -10 0 -9 -161 -304 -190 -350 -6 -8 -13 -22 -17 -30 -4 -8 -53 -98
-110 -199 -57 -102 -103 -188 -103 -193 0 -4 -4 -8 -9 -8 -5 0 -14 -12 -20
-27 -6 -16 -28 -59 -50 -98 -22 -38 -45 -82 -52 -97 -6 -16 -15 -28 -21 -28
-5 0 -7 -4 -3 -9 3 -5 0 -15 -7 -23 -7 -7 -35 -58 -63 -113 -27 -55 -52 -102
-56 -105 -3 -3 -20 -34 -38 -70 -19 -36 -37 -67 -40 -70 -4 -3 -15 -24 -25
-46 -15 -36 -84 -114 -99 -114 -11 0 23 100 67 195 37 81 75 203 101 325 2 8
4 15 5 15 1 0 3 7 5 16 12 65 44 150 91 244 30 61 57 128 60 150 3 22 9 44 12
50 3 5 7 16 7 25 2 20 26 93 35 105 4 6 19 46 33 90 81 253 119 368 142 430
41 107 45 125 47 195 1 44 9 77 24 106 12 23 28 68 35 100 7 33 13 61 14 64 0
3 4 14 7 25 4 11 9 36 12 55 6 40 25 96 54 161 68 150 82 197 96 314 6 42 39
157 76 260 12 33 23 68 25 77 2 9 11 41 19 70 42 141 66 225 70 248 3 14 19
72 35 130 17 58 31 113 31 123 0 9 5 17 11 17 5 0 8 4 5 8 -3 5 8 54 24 109
15 55 31 113 33 129 3 16 12 58 20 94 9 36 18 90 22 120 3 30 9 73 12 95 12
77 7 159 -11 195 -30 57 -81 98 -140 110 -36 7 -67 23 -100 51 -58 47 -327
179 -371 181 -16 0 -40 -2 -52 -6 -31 -10 -60 1 -66 23 -4 16 -15 18 -94 17
-86 -1 -91 -2 -126 -33 -21 -18 -56 -41 -80 -52 -65 -30 -88 -60 -96 -128 -7
-57 -13 -70 -140 -308 -20 -38 -62 -117 -93 -175 -30 -58 -64 -121 -75 -140
-11 -19 -55 -102 -98 -185 -43 -82 -91 -171 -107 -197 -15 -27 -24 -48 -20
-48 4 0 2 -4 -3 -8 -6 -4 -37 -59 -69 -122 -33 -63 -75 -144 -94 -179 -55
-102 -62 -115 -62 -128 0 -6 -3 -13 -7 -15 -5 -1 -19 -25 -32 -53 -13 -27 -30
-57 -37 -65 -7 -8 -13 -19 -13 -25 -1 -5 -43 -93 -95 -195 -51 -102 -122 -248
-157 -325 -35 -77 -111 -237 -170 -355 -59 -119 -122 -254 -139 -300 -18 -47
-38 -98 -45 -115 -7 -16 -22 -55 -34 -85 -12 -30 -26 -64 -31 -75 -41 -93 -62
-143 -95 -225 -20 -52 -43 -109 -51 -127 -8 -17 -14 -38 -14 -47 0 -9 -5 -16
-11 -16 -5 0 -8 -4 -4 -9 3 -5 1 -12 -5 -16 -5 -3 -10 -15 -10 -26 0 -10 -4
-27 -9 -37 -9 -16 -21 -47 -26 -64 -2 -5 -3 -9 -5 -10 -1 -2 -3 -10 -6 -18 -4
-17 -53 -155 -55 -155 0 0 -2 -7 -4 -15 -1 -8 -15 -51 -30 -95 -15 -44 -28
-87 -30 -95 -2 -8 -18 -69 -35 -135 -17 -66 -33 -136 -36 -155 -2 -19 -6 -46
-9 -60 -20 -98 -25 -132 -41 -305 -6 -66 -7 -233 -1 -280 11 -89 21 -136 28
-141 5 -3 9 -12 9 -21 0 -21 38 -102 59 -127 9 -10 16 -21 15 -25 -2 -15 44
-64 86 -90 46 -28 197 -92 215 -91 15 1 56 70 60 101 2 15 -1 44 -6 66 -5 21
-12 49 -15 63 -2 14 -6 30 -8 36 -7 20 28 83 74 131 65 69 77 92 84 161 3 34
11 74 17 89 6 15 9 28 8 28 -8 0 31 96 76 190 29 61 74 173 101 250 26 77 89
227 141 334 51 106 93 194 93 196 0 18 104 215 147 278 83 121 114 192 111
251 -2 45 1 52 42 94 43 45 120 162 120 182 0 5 4 10 9 10 5 0 12 13 16 29 3
16 13 35 21 42 8 6 14 16 14 20 0 5 33 67 74 137 104 181 207 370 206 378 -1
4 2 10 7 13 5 3 25 38 45 76 95 183 109 209 119 222 6 7 9 13 7 13 -3 0 10 28
28 63 18 34 53 100 77 147 24 47 72 132 106 188 33 57 61 108 61 113 0 5 3 9
8 9 4 0 16 16 26 35 11 19 23 35 28 35 4 0 8 5 8 11 0 21 93 146 121 162 29
16 29 16 25 -6 -3 -12 -7 -40 -10 -62 -13 -87 -23 -136 -56 -265 -12 -47 -23
-92 -25 -100 -2 -8 -17 -69 -35 -135 -17 -66 -33 -127 -35 -135 -2 -8 -13 -53
-24 -100 -12 -47 -23 -94 -26 -104 -2 -10 -9 -33 -15 -51 -6 -18 -12 -41 -14
-52 -2 -11 -12 -44 -21 -74 -9 -30 -18 -64 -21 -75 -4 -23 -114 -403 -141
-489 -8 -27 -17 -59 -19 -70 -2 -11 -20 -74 -40 -140 -20 -66 -40 -133 -44
-150 -4 -16 -16 -55 -25 -85 -10 -30 -18 -59 -19 -65 -3 -13 -54 -179 -116
-375 -27 -85 -61 -193 -75 -240 -15 -47 -33 -107 -42 -135 -8 -27 -16 -54 -17
-60 -2 -5 -9 -30 -16 -55 -8 -25 -14 -47 -15 -50 0 -3 -5 -23 -10 -45 -4 -22
-9 -44 -11 -50 -20 -70 -55 -265 -49 -274 3 -5 2 -12 -3 -15 -9 -5 -8 -175 2
-225 6 -31 19 -61 49 -118 14 -27 76 -55 153 -69 15 -3 38 -14 52 -25 30 -23
67 -19 122 16 61 39 164 138 219 209 44 58 158 266 159 290 0 5 4 12 9 15 4 3
31 51 58 106 28 54 56 105 63 113 7 7 10 17 7 22 -3 5 -2 10 2 12 5 1 32 50
62 108 30 58 71 137 91 175 20 39 57 108 81 155 24 47 49 88 54 92 6 4 7 8 3
8 -4 0 6 22 22 50 16 27 26 50 22 50 -4 0 -2 4 4 8 6 4 35 52 64 107 49 92 79
149 150 280 177 325 246 456 336 635 85 170 213 391 326 565 104 162 122 190
121 195 -1 3 -4 25 -7 50 -4 25 -11 69 -17 99 -11 53 -11 53 22 81 20 16 34
37 34 52 2 28 43 88 61 88 15 0 94 85 124 135 13 22 27 42 30 45 3 3 17 21 30
40 13 19 27 37 30 40 20 18 66 104 105 199 26 61 55 122 66 135 10 13 19 28
19 33 0 5 10 20 21 32 52 56 179 240 179 260 0 11 64 96 115 151 36 39 115
152 115 165 0 7 119 175 159 225 65 80 94 113 209 231 62 63 127 140 144 169
17 30 72 97 123 149 50 53 103 109 116 125 47 57 105 112 159 152 73 53 81 58
75 42 -2 -7 -6 -26 -9 -43 -4 -28 -45 -134 -56 -145 -3 -3 -6 -11 -8 -19 -2
-8 -66 -168 -144 -355 -77 -188 -156 -379 -175 -426 -19 -47 -40 -98 -47 -115
-33 -76 -81 -190 -82 -195 0 -3 -8 -22 -17 -44 -9 -21 -17 -44 -17 -50 0 -7
-5 -17 -12 -24 -6 -6 -13 -17 -14 -24 -2 -15 -205 -502 -239 -573 -13 -27 -35
-79 -48 -115 -14 -36 -36 -87 -48 -115 -12 -27 -30 -70 -41 -95 -10 -25 -24
-54 -29 -65 -6 -12 -11 -27 -13 -35 -2 -8 -7 -26 -13 -40 -6 -14 -20 -54 -32
-90 -12 -35 -25 -69 -29 -75 -4 -5 -7 -14 -8 -20 -2 -11 -94 -249 -118 -306
-8 -20 -12 -39 -9 -43 4 -3 0 -6 -7 -6 -7 0 -11 -3 -8 -6 3 -3 -8 -40 -24 -82
-17 -42 -31 -81 -32 -87 -3 -13 -44 -124 -56 -150 -5 -11 -28 -72 -51 -135
-23 -63 -64 -173 -91 -245 -41 -108 -60 -162 -73 -205 -1 -3 -4 -12 -8 -20
-19 -50 -79 -217 -82 -230 -4 -16 -142 -425 -152 -450 -4 -8 -7 -17 -8 -20 -1
-3 -5 -14 -9 -25 -29 -76 -35 -95 -30 -95 4 0 1 -7 -6 -15 -7 -8 -9 -15 -5
-15 4 0 3 -6 -2 -12 -6 -7 -24 -58 -41 -113 -17 -55 -40 -128 -51 -162 -10
-35 -17 -63 -15 -63 3 0 0 -9 -6 -21 -6 -11 -13 -28 -15 -37 -9 -38 -35 -134
-70 -257 -20 -71 -37 -140 -38 -152 0 -13 -5 -23 -11 -23 -5 0 -6 -3 -3 -7 4
-3 2 -12 -4 -20 -6 -7 -9 -13 -6 -13 3 0 -2 -26 -10 -57 -8 -32 -16 -65 -18
-73 -24 -108 -34 -164 -40 -209 -4 -30 -9 -63 -11 -75 -2 -12 -7 -41 -10 -66
-3 -25 -7 -61 -9 -80 -3 -20 -7 -105 -10 -190 -3 -85 -8 -175 -11 -200 -15
-118 -7 -257 22 -361 8 -30 17 -62 19 -72 2 -10 20 -51 40 -92 34 -72 92 -141
137 -162 30 -15 162 -53 182 -53 9 0 44 29 79 63 80 80 135 188 151 297 3 19
8 46 11 60 3 14 7 61 10 105 8 129 17 161 69 255 17 30 31 59 32 65 1 5 4 28
8 50 3 22 10 60 15 85 13 60 30 158 35 195 3 17 5 30 6 30 1 0 3 9 5 20 1 11
17 53 34 94 17 41 33 84 36 95 2 12 11 46 19 76 15 54 19 75 32 155 3 22 21
61 39 86 52 73 68 109 67 158 -1 25 5 52 12 61 13 14 35 74 40 105 1 8 5 18 9
21 4 4 7 16 7 26 0 10 4 26 9 36 6 9 26 55 46 102 20 47 43 100 52 118 8 18
16 40 18 50 7 32 63 227 80 277 29 86 185 477 220 550 18 39 38 87 45 108 6
20 27 60 46 87 19 28 32 50 29 50 -3 0 -1 9 5 21 6 11 13 30 16 42 24 127 48
196 74 212 6 4 8 10 5 15 -10 16 16 93 45 136 32 45 68 121 95 199 9 28 20 57
23 65 3 8 6 17 7 20 10 28 37 81 47 92 29 31 45 77 43 119 -2 39 10 85 25 99
3 3 22 28 41 55 18 28 40 54 47 58 19 13 41 62 44 99 1 21 14 48 35 72 18 22
33 43 33 48 0 4 14 30 31 57 30 50 77 158 85 197 2 11 6 36 8 55 3 19 5 34 6
34 1 0 3 7 5 15 21 102 50 181 85 235 11 17 23 37 27 45 3 8 19 31 34 51 24
30 81 131 84 149 6 29 186 386 246 488 27 45 45 82 41 82 -4 0 -2 4 4 8 11 7
94 195 94 212 0 6 4 18 10 28 5 9 19 40 31 67 12 28 33 77 49 110 15 33 27 64
28 69 0 5 4 12 9 15 13 9 48 88 67 151 14 45 16 95 14 281 l-3 226 -43 54
c-76 98 -136 157 -182 179 -25 13 -46 22 -47 21 -2 0 -4 -1 -5 0 -2 0 -16 2
-33 4 -73 9 -102 26 -115 65 -7 21 -10 48 -7 59 4 17 -1 23 -21 28 -15 3 -43
13 -62 21 -19 8 -35 14 -35 13 0 -1 -17 5 -37 13 -46 19 -52 19 -104 -2z
m-320 -404 c-4 -11 -36 -36 -91 -71 -9 -6 -10 -1 -1 24 7 20 22 36 42 45 39
17 57 17 50 2z m-230 -225 l-69 -63 -6 28 c-3 16 -9 34 -13 40 -4 6 9 18 31
28 21 9 56 25 78 35 65 31 56 2 -21 -68z m-85 -72 c11 -7 10 -10 -5 -15 -11
-4 -33 -26 -51 -49 -17 -23 -40 -51 -50 -62 -10 -11 -30 -36 -44 -55 -15 -19
-37 -46 -49 -60 -12 -14 -34 -40 -48 -59 -15 -19 -38 -47 -52 -63 -14 -15 -29
-34 -35 -41 -74 -93 -90 -113 -95 -117 -3 -3 -18 -23 -35 -45 -16 -22 -35 -46
-42 -53 -7 -8 -27 -35 -45 -60 -17 -26 -40 -53 -50 -60 -10 -7 -18 -20 -18
-28 0 -8 -4 -14 -8 -14 -5 0 -22 -19 -39 -42 -17 -24 -43 -56 -57 -73 -15 -16
-39 -48 -54 -70 -15 -22 -32 -44 -38 -50 -6 -5 -25 -30 -42 -55 -16 -25 -40
-56 -52 -70 -11 -13 -64 -90 -117 -170 -124 -188 -131 -198 -197 -306 -30 -50
-64 -102 -75 -115 l-19 -24 14 55 c8 30 16 64 18 75 2 11 7 31 10 45 3 14 8
38 11 54 2 16 8 32 12 35 12 8 64 91 58 91 -13 0 34 43 61 56 18 9 36 28 44
48 11 30 57 68 77 65 21 -4 22 3 3 23 -11 12 -21 28 -21 35 -1 7 -2 19 -3 26
-3 14 9 40 27 59 7 7 20 25 30 41 21 32 38 36 32 7 -2 -12 -1 -29 3 -40 7 -18
8 -18 32 0 19 14 24 28 25 64 1 42 6 50 61 104 63 61 114 118 114 127 0 3 5
11 10 18 6 7 35 46 65 87 30 41 58 80 63 85 20 25 21 35 7 69 -20 47 -12 59
36 53 30 -3 46 1 67 17 63 49 98 95 108 144 4 19 46 80 83 121 17 19 40 48 52
65 28 41 112 106 158 122 44 16 43 16 60 5z m-1614 -2042 c11 -16 -30 -50 -43
-37 -8 8 -8 17 -1 30 11 20 34 24 44 7z m690 -1586 c2 -10 4 -18 5 -18 1 0 3
-9 5 -20 6 -28 -7 -45 -39 -51 -23 -4 -26 -2 -22 18 5 28 38 99 44 94 2 -2 5
-12 7 -23z m-89 -270 c4 -31 -9 -54 -43 -72 -29 -15 -29 -14 3 55 27 60 33 62
40 17z m-63 -170 c-5 -33 -23 -36 -23 -4 0 15 20 45 26 38 1 -1 -1 -17 -3 -34z
m-18 -105 c-3 -17 -7 -34 -9 -37 -2 -3 -7 -28 -11 -56 -11 -79 -13 -87 -30
-145 -9 -30 -23 -80 -31 -110 -9 -30 -22 -65 -30 -77 -8 -13 -12 -23 -9 -23
10 0 -25 -59 -46 -79 -24 -23 -59 -34 -53 -17 2 6 6 29 8 51 7 62 12 80 62
230 25 77 46 146 47 153 0 6 4 12 9 12 4 0 8 5 8 12 0 30 34 97 53 106 34 16
38 14 32 -20z m-242 -680 c8 -19 11 -41 6 -53 -17 -45 -22 -60 -23 -66 -1 -3
-14 -34 -30 -68 -58 -120 -68 -42 -15 119 17 55 36 100 40 100 5 0 15 -15 22
-32z m-113 -358 c4 -46 0 -56 -29 -73 -39 -23 -41 -22 -26 16 39 102 51 114
55 57z m-33 -187 c-3 -16 -12 -58 -21 -94 -23 -99 -26 -119 -33 -178 -9 -88
-17 -105 -54 -123 -33 -16 -34 -15 -37 4 -2 11 2 41 8 67 7 25 13 53 15 61 2
8 13 43 24 78 12 35 19 67 16 73 -4 5 -2 9 4 9 5 0 8 8 6 18 -3 23 11 51 44
84 33 34 33 34 28 1z m-114 -485 c-4 -7 -8 -17 -9 -23 -13 -69 -56 -230 -63
-238 -14 -14 -5 156 9 188 20 43 50 85 61 85 6 0 7 -6 2 -12z"/>
</g>
</svg>
