<svg width="60" height="90" viewBox="0 0 60 90" fill="none" xmlns="http://www.w3.org/2000/svg">
<path d="M15.0031 90C23.2814 90 30.0001 83.28 30.0001 75V60H15.0031C6.72476 60 0.00610352 66.72 0.00610352 75C0.00610352 83.28 6.72476 90 15.0031 90Z" fill="#9448bc"/>
<path d="M0.00610352 45C0.00610352 36.72 6.72476 30 15.0031 30H30.0001V60H15.0031C6.72476 60 0.00610352 53.28 0.00610352 45Z" fill="#9448bc"/>
<path d="M0.00610352 15C0.00610352 6.72 6.72476 0 15.0031 0H30.0001V30H15.0031C6.72476 30 0.00610352 23.28 0.00610352 15Z" fill="#9448bc"/>
<path d="M30 0H44.997C53.2754 0 59.994 6.72 59.994 15C59.994 23.28 53.2754 30 44.997 30H30V0Z" fill="#9448bc"/>
<path d="M59.994 45C59.994 53.28 53.2754 60 44.997 60C36.7187 60 30 53.28 30 45C30 36.72 36.7187 30 44.997 30C53.2754 30 59.994 36.72 59.994 45Z" fill="#9448bc"/>
</svg>
