<svg width="512" height="502" viewBox="0 0 512 502" fill="none" xmlns="http://www.w3.org/2000/svg">
<path fill-rule="evenodd" clip-rule="evenodd" d="M255.984 0.33197C114.624 0.33197 0 115.396 0 257.364C0 370.9 73.3437 467.232 175.088 501.224C187.888 503.584 192.56 495.648 192.56 488.84C192.56 482.736 192.336 466.576 192.208 445.132C120.992 460.664 105.968 410.676 105.968 410.676C94.3363 380.992 77.552 373.088 77.552 373.088C54.304 357.136 79.3121 357.46 79.3121 357.46C104.992 359.276 118.512 383.948 118.512 383.948C141.36 423.224 178.432 411.884 193.024 405.296C195.344 388.688 201.968 377.36 209.28 370.936C152.432 364.448 92.672 342.408 92.672 243.924C92.672 215.86 102.64 192.924 119.024 174.948C116.384 168.444 107.6 142.324 121.52 106.936C121.52 106.936 143.024 100.028 191.92 133.28C212.352 127.576 234.24 124.736 256.016 124.62C277.76 124.732 299.664 127.576 320.112 133.28C368.976 100.028 390.432 106.936 390.432 106.936C404.4 142.324 395.616 168.444 392.976 174.948C409.392 192.924 419.296 215.86 419.296 243.924C419.296 342.648 359.44 364.384 302.416 370.744C311.6 378.68 319.792 394.356 319.792 418.34C319.792 452.7 319.472 480.408 319.472 488.844C319.472 495.72 324.08 503.72 337.072 501.196C438.72 467.136 512 370.868 512 257.364C512 115.396 397.376 0.33197 255.984 0.33197Z" fill="#9448bc"/>
</svg>
