<svg width="244" height="387" viewBox="0 0 244 387" fill="none" xmlns="http://www.w3.org/2000/svg">
<path d="M182.857 386.5C166.282 386.5 150.386 379.55 138.666 367.18C126.946 354.81 120.361 338.032 120.361 320.538L182.857 386.5C182.857 369.006 176.272 352.228 164.552 339.858C152.832 327.487 136.936 320.538 120.361 320.538" fill="#CDAAE0"/>
<path d="M243.037 257.019C243.037 273.866 236.696 290.022 225.41 301.934C214.124 313.846 198.817 320.538 182.856 320.538L243.037 257.019C227.076 257.019 211.769 263.712 200.483 275.624C189.197 287.536 182.856 303.692 182.856 320.538" fill="#D4B6E4"/>
<path d="M120.361 257.019C120.361 273.866 114.02 290.022 102.734 301.934C91.4483 313.846 76.1411 320.538 60.1802 320.538L120.361 257.019C104.4 257.019 89.0928 263.712 77.8067 275.624C66.5206 287.536 60.1802 303.692 60.1802 320.538" fill="#CFACE1"/>
<path d="M182.857 193.5C182.857 210.347 176.272 226.503 164.552 238.415C152.832 250.327 136.936 257.02 120.361 257.02L182.857 193.5C166.282 193.5 150.386 200.193 138.666 212.105C126.946 224.017 120.361 240.173 120.361 257.02" fill="#F7F2FA"/>
<path d="M120.361 225.26C120.361 233.683 117.191 241.761 111.548 247.717C105.905 253.673 98.251 257.019 90.2705 257.019L120.361 225.26C112.38 225.26 104.727 228.606 99.0838 234.562C93.4407 240.518 90.2705 248.596 90.2705 257.019" fill="#50E086"/>
<path d="M30.0908 257.019C22.1104 257.019 14.4568 253.673 8.81376 247.717C3.17073 241.761 0.000500065 233.683 0.000500065 225.26L30.0908 257.019C30.0908 248.596 26.9206 240.518 21.2776 234.562C15.6345 228.606 7.98095 225.26 0.000500065 225.26" fill="#64E493"/>
<path d="M60.1807 193.5C60.1807 201.923 57.0104 210.001 51.3674 215.957C45.7244 221.913 38.0708 225.259 30.0903 225.259L60.1807 193.5C52.2002 193.5 44.5466 196.846 38.9036 202.802C33.2606 208.758 30.0903 216.836 30.0903 225.259" fill="#9C56C1"/>
<path d="M60.1807 193.5C44.2198 193.5 28.9126 186.808 17.6265 174.896C6.34046 162.984 2.17111e-05 146.828 2.17111e-05 129.981L60.1807 193.5C60.1807 176.654 53.8402 160.498 42.5542 148.585C31.2681 136.673 15.9609 129.981 2.17111e-05 129.981" fill="#60E390"/>
<path d="M212.947 95.7787C208.995 95.7787 205.082 94.9573 201.432 93.3612C197.781 91.7651 194.464 89.4257 191.67 86.4766C188.876 83.5275 186.659 80.0263 185.147 76.1731C183.635 72.3198 182.856 68.1899 182.856 64.0192L212.947 95.7787C212.947 87.3556 209.777 79.2774 204.134 73.3214C198.49 67.3653 190.837 64.0192 182.856 64.0192" fill="#C69DDB"/>
<path d="M120.361 129.981C104.4 129.981 89.0928 123.032 77.8067 110.661C66.5206 98.2911 60.1802 81.5134 60.1802 64.0192L120.361 129.981C120.361 121.319 118.804 112.742 115.78 104.739C112.756 96.7358 108.323 89.4642 102.734 83.339C91.4483 70.9688 76.1411 64.0192 60.1802 64.0192" fill="#F0E6F6"/>
<path d="M243.037 32.2595C235.057 32.2595 227.403 28.9134 221.76 22.9574C216.117 17.0013 212.947 8.92315 212.947 0.500005L243.037 32.2595C243.037 23.8364 239.867 15.7582 234.224 9.80216C228.581 3.84609 220.927 0.500005 212.947 0.500005" fill="#A15EC4"/>
<path d="M212.947 32.2595C204.966 32.2595 197.313 28.9134 191.67 22.9574C186.027 17.0013 182.856 8.92315 182.856 0.500005L212.947 32.2595C212.947 23.8364 209.777 15.7582 204.134 9.80216C198.49 3.84609 190.837 0.500005 182.856 0.500005" fill="#CEF6DD"/>
<path d="M182.857 64.0195C166.282 64.0195 150.386 57.3274 138.666 45.4153C126.946 33.5031 120.361 17.3468 120.361 0.500493L182.857 64.0195C182.857 47.1732 176.272 31.0169 164.552 19.1048C152.832 7.19268 136.936 0.500493 120.361 0.500493" fill="#F0E6F6"/>
<path d="M90.271 32.26C90.271 40.6832 87.1008 48.7613 81.4578 54.7174C75.8147 60.6735 68.1611 64.0195 60.1807 64.0195L90.271 32.26C82.2905 32.26 74.637 35.6061 68.9939 41.5621C63.3509 47.5182 60.1807 55.5964 60.1807 64.0195" fill="#A261C5"/>
<path d="M90.271 0.500005C90.271 8.92315 87.1008 17.0013 81.4578 22.9574C75.8147 28.9134 68.1611 32.2595 60.1807 32.2595L90.271 0.500005C82.2905 0.500005 74.637 3.84609 68.9939 9.80216C63.3509 15.7582 60.1807 23.8364 60.1807 32.2595" fill="#F2E8F7"/>
</svg>
