<svg width="39" height="28" viewBox="0 0 39 28" fill="none" xmlns="http://www.w3.org/2000/svg">
<path d="M23.7 24.32C23.8733 24.4267 23.9333 24.5533 23.88 24.7C23.8133 24.8733 23.7467 25.04 23.68 25.2C23.6133 25.36 23.4933 25.4867 23.32 25.58C23.2533 25.6067 23.1867 25.6467 23.12 25.7C23.0667 25.7533 23.02 25.8067 22.98 25.86C22.8867 25.9267 22.7867 25.98 22.68 26.02C22.5867 26.06 22.4867 26.1 22.38 26.14C21.8733 26.3133 21.32 26.4 20.72 26.4C20.3867 26.4 20.06 26.3733 19.74 26.32C19.42 26.2667 19.0933 26.1933 18.76 26.1C18.1333 25.9 17.52 25.6333 16.92 25.3C16.6133 25.14 16.3133 24.9533 16.02 24.74C15.8467 24.62 15.6733 24.5 15.5 24.38C15.3267 24.2733 15.1533 24.16 14.98 24.04C14.6733 23.8 14.3667 23.5533 14.06 23.3C13.7667 23.06 13.4733 22.8133 13.18 22.56C12.94 22.3733 12.7067 22.1867 12.48 22C12.2533 21.8 12.0267 21.6 11.8 21.4C11.5867 21.2133 11.3733 21.02 11.16 20.82C10.9467 20.62 10.7333 20.42 10.52 20.22C10.28 19.9933 10.04 19.7667 9.8 19.54C9.56 19.3133 9.32 19.0867 9.08 18.86C8.76 18.5533 8.44667 18.24 8.14 17.92C7.84667 17.6 7.54667 17.28 7.24 16.96C7.09333 16.8133 6.95333 16.66 6.82 16.5C6.7 16.3267 6.57333 16.16 6.44 16C6.37333 15.92 6.3 15.84 6.22 15.76C6.14 15.68 6.03333 15.6267 5.9 15.6C5.79333 15.8533 5.68667 16.1067 5.58 16.36C5.47333 16.6 5.39333 16.8533 5.34 17.12C5.32667 17.2 5.3 17.28 5.26 17.36C5.23333 17.44 5.20667 17.5133 5.18 17.58C5.14 17.6733 5.06667 17.7533 4.96 17.82C4.92 17.8467 4.88 17.88 4.84 17.92C4.81333 17.96 4.82 18.0133 4.86 18.08C4.9 18.0533 4.94667 18.0133 5 17.96C5.04 18 5.06 18.0267 5.06 18.04C5.00667 18.2 4.95333 18.36 4.9 18.52C4.84667 18.6667 4.8 18.82 4.76 18.98C4.70667 19.2067 4.65333 19.44 4.6 19.68C4.56 19.92 4.54667 20.1667 4.56 20.42C4.54667 20.5533 4.52667 20.6867 4.5 20.82C4.48667 20.94 4.48 21.0667 4.48 21.2C4.46667 21.3067 4.47333 21.4067 4.5 21.5C4.52667 21.58 4.55333 21.6733 4.58 21.78C4.60667 21.8733 4.62667 21.96 4.64 22.04C4.66667 22.12 4.69333 22.2 4.72 22.28C4.74667 22.3467 4.77333 22.4067 4.8 22.46C4.84 22.5 4.87333 22.5467 4.9 22.6C4.95333 22.7067 5.04667 22.76 5.18 22.76C5.24667 22.76 5.32 22.76 5.4 22.76C5.48 22.76 5.55333 22.7533 5.62 22.74C5.68667 22.74 5.74667 22.7333 5.8 22.72C5.86667 22.7067 5.93333 22.7 6 22.7C6.18667 22.7 6.25333 22.7867 6.2 22.96C6.17333 22.9867 6.16 23.02 6.16 23.06C6.17333 23.1 6.17333 23.14 6.16 23.18C6.08 23.2067 6 23.2333 5.92 23.26C5.84 23.2867 5.76 23.3 5.68 23.3C5.53333 23.2867 5.38667 23.2667 5.24 23.24C5.10667 23.2133 4.96667 23.1867 4.82 23.16C4.60667 23.0133 4.39333 22.8667 4.18 22.72C3.96667 22.5733 3.78667 22.3867 3.64 22.16C3.22667 21.5867 2.96 20.9467 2.84 20.24C2.77333 19.9067 2.74667 19.58 2.76 19.26C2.78667 18.94 2.83333 18.62 2.9 18.3C2.95333 18.1133 2.99333 17.92 3.02 17.72C3.06 17.5067 3.1 17.3 3.14 17.1C3.20667 16.82 3.28 16.5467 3.36 16.28C3.45333 16 3.54667 15.72 3.64 15.44C3.70667 15.2667 3.76 15.1 3.8 14.94C3.85333 14.7667 3.91333 14.5933 3.98 14.42C4.02 14.3267 4.00667 14.2333 3.94 14.14C3.86 13.9933 3.76667 13.8533 3.66 13.72C3.56667 13.5867 3.48667 13.4333 3.42 13.26C3.39333 13.1533 3.35333 13.0533 3.3 12.96C3.26 12.8533 3.25333 12.74 3.28 12.62C3.28 12.5267 3.27333 12.4333 3.26 12.34C3.26 12.2333 3.26 12.1267 3.26 12.02C3.26 11.9533 3.28 11.8667 3.32 11.76C3.38667 11.8667 3.44 11.9667 3.48 12.06C3.53333 12.1533 3.54667 12.2533 3.52 12.36C3.54667 12.5733 3.62667 12.74 3.76 12.86C3.77333 12.8733 3.78 12.8933 3.78 12.92C3.79333 12.9467 3.81333 12.9733 3.84 13C3.90667 13.1467 3.99333 13.26 4.1 13.34C4.24667 13.4867 4.35333 13.46 4.42 13.26C4.48667 13.1267 4.54667 12.9933 4.6 12.86C4.65333 12.7267 4.71333 12.5933 4.78 12.46C4.96667 12.1 5.14667 11.74 5.32 11.38C5.49333 11.02 5.66667 10.6667 5.84 10.32C5.98667 10.0133 6.14 9.71333 6.3 9.42C6.46 9.12667 6.62667 8.83333 6.8 8.54C7 8.20667 7.19333 7.88 7.38 7.56C7.58 7.24 7.77333 6.92 7.96 6.6C8.06667 6.44 8.16667 6.28 8.26 6.12C8.36667 5.96 8.46667 5.79333 8.56 5.62C8.49333 5.59333 8.44 5.59333 8.4 5.62C8.37333 5.64667 8.34667 5.67333 8.32 5.7C8.2 5.79333 8.06667 5.88667 7.92 5.98C7.78667 6.07333 7.65333 6.17333 7.52 6.28C7.45333 6.32 7.38667 6.36667 7.32 6.42C7.25333 6.47333 7.18667 6.52667 7.12 6.58C6.94667 6.75333 6.76 6.92 6.56 7.08C6.48 7.14667 6.4 7.21333 6.32 7.28C6.25333 7.33333 6.18 7.39333 6.1 7.46C6.07333 7.48667 6.03333 7.51333 5.98 7.54C5.92667 7.56667 5.88 7.59333 5.84 7.62C5.72 7.72667 5.6 7.83333 5.48 7.94C5.36 8.04667 5.24 8.14667 5.12 8.24C4.89333 8.4 4.70667 8.59333 4.56 8.82C4.42667 9.03333 4.26667 9.22667 4.08 9.4C3.94667 9.50667 3.83333 9.62 3.74 9.74C3.66 9.84667 3.56667 9.96 3.46 10.08C3.44667 10.0933 3.43333 10.1 3.42 10.1C3.42 10.1 3.41333 10.1133 3.4 10.14C3.33333 10.3133 3.24 10.46 3.12 10.58C3 10.6867 2.9 10.8133 2.82 10.96C2.66 11.1467 2.54667 11.3133 2.48 11.46C2.41333 11.5933 2.32667 11.6933 2.22 11.76C2.11333 11.8267 2 11.8867 1.88 11.94C1.57333 12.0733 1.30667 11.98 1.08 11.66C1.05333 11.6067 1.02 11.56 0.98 11.52C0.94 11.4667 0.906667 11.42 0.88 11.38C0.76 11.22 0.74 11.06 0.82 10.9C0.886667 10.7933 0.953333 10.6933 1.02 10.6C1.07333 10.4933 1.14 10.3933 1.22 10.3C1.44667 9.99333 1.66667 9.68667 1.88 9.38C2.09333 9.06 2.32667 8.74667 2.58 8.44C2.94 8.01333 3.31333 7.6 3.7 7.2C4.1 6.78667 4.52667 6.40667 4.98 6.06C5.20667 5.87333 5.43333 5.68667 5.66 5.5C5.9 5.31333 6.14 5.13333 6.38 4.96C6.62 4.78667 6.86667 4.62 7.12 4.46C7.37333 4.3 7.62 4.14667 7.86 4C8.27333 3.77333 8.68 3.54667 9.08 3.32C9.48 3.09333 9.90667 2.89333 10.36 2.72C10.52 2.65333 10.6733 2.58667 10.82 2.52C10.98 2.44 11.14 2.36667 11.3 2.3C11.5667 2.19333 11.8333 2.1 12.1 2.02C12.38 1.94 12.6533 1.85333 12.92 1.76C12.92 1.76 12.9467 1.77333 13 1.8C12.9333 1.98667 12.8067 2.08 12.62 2.08C12.3667 2.09333 12.1267 2.14 11.9 2.22C11.6867 2.28667 11.48 2.37333 11.28 2.48C11.1733 2.53333 11.06 2.58 10.94 2.62C10.82 2.64667 10.72 2.72 10.64 2.84C10.6133 2.88 10.56 2.91333 10.48 2.94C10.4133 2.96667 10.3467 2.97333 10.28 2.96C10.2267 2.96 10.1867 2.98667 10.16 3.04C10.1333 3.09333 10.0867 3.08667 10.02 3.02C10.0067 3.00667 9.96667 3.01333 9.9 3.04C9.84667 3.05333 9.81333 3.07333 9.8 3.1C9.74667 3.19333 9.68667 3.24667 9.62 3.26C9.55333 3.26 9.48 3.26667 9.4 3.28C9.36 3.29333 9.32 3.30667 9.28 3.32C9.24 3.33333 9.22667 3.37333 9.24 3.44C9.24 3.48 9.21333 3.52667 9.16 3.58C9.05333 3.55333 8.98 3.55333 8.94 3.58C8.9 3.59333 8.85333 3.63333 8.8 3.7C8.77333 3.72667 8.75333 3.75333 8.74 3.78C8.72667 3.80667 8.70667 3.83333 8.68 3.86C8.64 3.92667 8.58667 3.9 8.52 3.78C8.42667 3.88667 8.31333 3.96 8.18 4C8.04667 4.04 7.94 4.12667 7.86 4.26C7.9 4.24667 7.97333 4.22667 8.08 4.2C8.06667 4.22667 8.06 4.26 8.06 4.3C8.07333 4.32667 8.07333 4.36 8.06 4.4C8.14 4.37333 8.19333 4.35333 8.22 4.34C8.27333 4.31333 8.32 4.28667 8.36 4.26C8.4 4.23333 8.44 4.20667 8.48 4.18C8.50667 4.16667 8.53333 4.16 8.56 4.16C8.58667 4.14667 8.61333 4.12667 8.64 4.1C8.72 4.00667 8.80667 3.94 8.9 3.9C9.00667 3.84667 9.11333 3.79333 9.22 3.74C9.43333 3.64667 9.66667 3.53333 9.92 3.4C10.0533 3.33333 10.1867 3.27333 10.32 3.22C10.4667 3.15333 10.6067 3.08667 10.74 3.02C10.8333 2.98 10.92 2.94667 11 2.92C11.08 2.88 11.1667 2.83333 11.26 2.78C11.3667 2.71333 11.52 2.66667 11.72 2.64C11.8133 2.62667 11.9 2.59333 11.98 2.54C12.06 2.48667 12.1467 2.43333 12.24 2.38C12.28 2.36667 12.3133 2.35333 12.34 2.34C12.3667 2.31333 12.4 2.29333 12.44 2.28C12.6133 2.22667 12.78 2.18 12.94 2.14C13.1133 2.08667 13.2933 2.04 13.48 2C13.5733 1.97333 13.5933 1.92 13.54 1.84C13.5 1.84 13.46 1.84667 13.42 1.86C13.3933 1.87333 13.36 1.88667 13.32 1.9C13.28 1.9 13.24 1.89333 13.2 1.88C13.1733 1.85333 13.1467 1.80667 13.12 1.74C13.1333 1.72667 13.1667 1.70667 13.22 1.68C13.4333 1.62667 13.64 1.57333 13.84 1.52C14.0533 1.46667 14.2733 1.42 14.5 1.38C14.66 1.35333 14.82 1.34 14.98 1.34C15.14 1.32667 15.3 1.30667 15.46 1.28C15.9933 1.24 16.52 1.34 17.04 1.58C17.0533 1.59333 17.0667 1.6 17.08 1.6C17.1067 1.6 17.1267 1.61333 17.14 1.64C17.2733 1.8 17.4267 1.92 17.6 2C17.7867 2.08 17.96 2.17333 18.12 2.28C18.3333 2.38667 18.4933 2.52 18.6 2.68C18.6667 2.74667 18.72 2.82 18.76 2.9C18.8133 2.96667 18.8667 3.03333 18.92 3.1C18.96 3.14 18.98 3.19333 18.98 3.26C18.9933 3.28667 19 3.32 19 3.36C19 3.38667 19.0133 3.41333 19.04 3.44C19.2267 3.69333 19.3533 3.95333 19.42 4.22C19.5 4.48667 19.5533 4.76667 19.58 5.06C19.5933 5.34 19.5867 5.62 19.56 5.9C19.5333 6.16667 19.4667 6.42667 19.36 6.68C19.28 6.86667 19.1933 7.04667 19.1 7.22C19.02 7.38 18.94 7.54667 18.86 7.72C18.8067 7.82667 18.74 7.92667 18.66 8.02C18.5933 8.1 18.5267 8.19333 18.46 8.3C18.3 8.51333 18.1267 8.72 17.94 8.92C17.7667 9.10667 17.5867 9.29333 17.4 9.48C17.3067 9.56 17.22 9.64667 17.14 9.74C17.0733 9.82 16.9933 9.9 16.9 9.98C16.74 10.1267 16.5733 10.2733 16.4 10.42C16.24 10.5533 16.0733 10.6933 15.9 10.84C15.6467 11.0667 15.3933 11.28 15.14 11.48C14.7133 11.8 14.2467 12.1267 13.74 12.46C13.5933 12.5667 13.44 12.6733 13.28 12.78C13.12 12.8867 12.9467 12.9933 12.76 13.1C12.6533 13.1667 12.54 13.2267 12.42 13.28C12.3 13.3333 12.1867 13.3933 12.08 13.46L10.82 14.24C10.7533 14.2933 10.68 14.3333 10.6 14.36C10.52 14.3867 10.4467 14.42 10.38 14.46C10.26 14.5267 10.1333 14.5933 10 14.66C9.86667 14.7133 9.73333 14.7733 9.6 14.84C9.48 14.9333 9.34 15.0067 9.18 15.06C9.02 15.1 8.86667 15.1667 8.72 15.26C8.82667 15.4067 8.93333 15.54 9.04 15.66C9.16 15.78 9.28 15.9067 9.4 16.04C9.50667 16.1733 9.62 16.3067 9.74 16.44C9.86 16.56 9.97333 16.6933 10.08 16.84C10.1333 16.9067 10.1733 16.98 10.2 17.06C10.24 17.14 10.2933 17.2133 10.36 17.28C10.4133 17.3333 10.46 17.3867 10.5 17.44C10.54 17.48 10.5933 17.5133 10.66 17.54C10.74 17.5667 10.7733 17.6133 10.76 17.68C10.72 17.72 10.7267 17.74 10.78 17.74C11.0333 17.8333 11.2 18.0067 11.28 18.26C11.3067 18.2867 11.3667 18.3333 11.46 18.4C11.5533 18.4533 11.62 18.4933 11.66 18.52C11.7133 18.5467 11.74 18.5667 11.74 18.58C11.8067 18.7267 11.9 18.8467 12.02 18.94C12.14 19.0333 12.26 19.1333 12.38 19.24C12.4867 19.3467 12.5933 19.46 12.7 19.58C12.8067 19.6867 12.9133 19.7933 13.02 19.9C13.0467 19.9267 13.0667 19.9533 13.08 19.98C13.1067 20.0067 13.1333 20.0333 13.16 20.06C13.1867 20.1267 13.22 20.16 13.26 20.16C13.38 20.2 13.4867 20.2667 13.58 20.36C13.6733 20.44 13.7667 20.52 13.86 20.6C13.94 20.6667 14.0267 20.74 14.12 20.82C14.2267 20.9 14.32 20.98 14.4 21.06C14.4533 21.1 14.4867 21.1467 14.5 21.2C14.5267 21.2533 14.5667 21.2933 14.62 21.32C14.6733 21.36 14.7133 21.4 14.74 21.44C14.7667 21.48 14.8067 21.5267 14.86 21.58C14.8867 21.6067 14.9267 21.64 14.98 21.68C15.0467 21.72 15.1 21.76 15.14 21.8C15.18 21.84 15.2267 21.88 15.28 21.92C15.3333 21.9467 15.38 21.9867 15.42 22.04C15.4867 22.1467 15.5667 22.2267 15.66 22.28C15.7667 22.3333 15.8733 22.3933 15.98 22.46C16.0467 22.4867 16.1 22.5267 16.14 22.58C16.1933 22.6333 16.2533 22.68 16.32 22.72C16.3867 22.8 16.4533 22.8733 16.52 22.94C16.6 23.02 16.6867 23.0933 16.78 23.16C16.9267 23.2667 17.08 23.3667 17.24 23.46C17.4 23.5667 17.5533 23.6733 17.7 23.78C17.9533 23.9533 18.2133 24.1067 18.48 24.24C18.76 24.3867 19.0333 24.5333 19.3 24.68C19.5667 24.8267 19.84 24.9333 20.12 25C20.4133 25.08 20.7067 25.1467 21 25.2C21.16 25.2267 21.32 25.2467 21.48 25.26C21.6533 25.2867 21.8133 25.3467 21.96 25.44C22.0133 25.4667 22.0667 25.4733 22.12 25.46C22.1733 25.46 22.2333 25.46 22.3 25.46C22.4733 25.46 22.6333 25.4333 22.78 25.38C22.94 25.3267 23.1 25.26 23.26 25.18C23.2867 25.1533 23.3133 25.12 23.34 25.08C23.38 25.0533 23.4 25.02 23.4 24.98C23.4533 24.8867 23.4933 24.7933 23.52 24.7C23.5467 24.6067 23.5867 24.5067 23.64 24.4C23.6667 24.3733 23.6867 24.3467 23.7 24.32ZM18.22 2.58C18.2467 2.60667 18.2733 2.63333 18.3 2.66C18.34 2.68667 18.3733 2.71333 18.4 2.74C18.4267 2.71333 18.4467 2.68667 18.46 2.66C18.4333 2.56667 18.3733 2.52 18.28 2.52L18.22 2.58ZM5.76 5.86C5.89333 5.88667 5.98667 5.86 6.04 5.78C6.10667 5.7 6.19333 5.63333 6.3 5.58C6.24667 5.55333 6.22 5.54 6.22 5.54C6.20667 5.54 6.2 5.53333 6.2 5.52C6.12 5.58667 6.04 5.64667 5.96 5.7C5.89333 5.75333 5.82667 5.80667 5.76 5.86ZM6.52 5.38C6.61333 5.32667 6.69333 5.27333 6.76 5.22C6.66667 5.20667 6.60667 5.20667 6.58 5.22C6.56667 5.23333 6.54667 5.28667 6.52 5.38ZM7.72 4.6C7.72 4.58667 7.72 4.58 7.72 4.58C7.73333 4.56667 7.74 4.54667 7.74 4.52C7.71333 4.50667 7.68667 4.5 7.66 4.5C7.63333 4.48667 7.60667 4.47333 7.58 4.46C7.56667 4.47333 7.56 4.49333 7.56 4.52C7.58667 4.53333 7.61333 4.54667 7.64 4.56C7.66667 4.57333 7.69333 4.58667 7.72 4.6ZM14.98 10.24C15.14 10.2267 15.2333 10.2133 15.26 10.2C15.2867 10.1867 15.3067 10.1267 15.32 10.02C15.1333 10.06 15.0267 10.0933 15 10.12C14.9733 10.1333 14.9667 10.1733 14.98 10.24ZM15.74 9.42C15.8733 9.42 15.9533 9.41333 15.98 9.4C16.0067 9.38667 16.02 9.34 16.02 9.26C15.9267 9.3 15.8333 9.35333 15.74 9.42ZM16.02 9.24C16.14 9.21333 16.22 9.18667 16.26 9.16V9.1C16.2333 9.1 16.2067 9.09333 16.18 9.08C16.1667 9.06667 16.1533 9.06667 16.14 9.08C16.1133 9.10667 16.0933 9.13333 16.08 9.16C16.0667 9.18667 16.0467 9.21333 16.02 9.24ZM16.72 8.28C16.92 8.25333 17.0333 8.22 17.06 8.18C17.0867 8.14 17.06 8.05333 16.98 7.92C16.9267 7.98667 16.88 8.04667 16.84 8.1C16.8 8.15333 16.76 8.21333 16.72 8.28ZM16.24 1.4C16.1467 1.41333 16.06 1.42667 15.98 1.44C15.9133 1.44 15.8467 1.44 15.78 1.44V1.52C15.9133 1.57333 16.06 1.58667 16.22 1.56C16.2733 1.53333 16.2933 1.50667 16.28 1.48C16.28 1.45333 16.2667 1.42666 16.24 1.4ZM16 1.78C15.96 1.76667 15.9067 1.76 15.84 1.76C15.84 1.76 15.8333 1.76667 15.82 1.78C15.9 1.80667 15.9533 1.82 15.98 1.82C15.98 1.80667 15.9867 1.79333 16 1.78ZM13.9 1.64C13.78 1.66667 13.7 1.74667 13.66 1.88C13.6867 1.89333 13.72 1.9 13.76 1.9C13.9867 1.86 14.2067 1.82 14.42 1.78C14.6467 1.72667 14.8733 1.68 15.1 1.64C15.14 1.61333 15.1733 1.56667 15.2 1.5C15.1067 1.48667 15.0267 1.47333 14.96 1.46C14.8933 1.44667 14.8267 1.43333 14.76 1.42C14.7333 1.43333 14.7067 1.45333 14.68 1.48C14.6533 1.50667 14.6267 1.52 14.6 1.52C14.4667 1.49333 14.3467 1.50667 14.24 1.56C14.1333 1.6 14.02 1.62667 13.9 1.64ZM12.96 2.32C12.9067 2.34667 12.8533 2.37333 12.8 2.4C12.76 2.41333 12.7 2.43333 12.62 2.46C12.7933 2.5 12.9067 2.45333 12.96 2.32ZM12.46 2.56C12.4867 2.54667 12.52 2.54 12.56 2.54C12.56 2.52667 12.5533 2.52 12.54 2.52C12.54 2.50667 12.54 2.49333 12.54 2.48H12.42L12.46 2.56ZM12.28 2.56C12.1733 2.58667 12.1 2.60667 12.06 2.62C12.06 2.63333 12.0733 2.66667 12.1 2.72C12.1267 2.69333 12.1533 2.68 12.18 2.68C12.22 2.66667 12.26 2.64667 12.3 2.62C12.2867 2.60667 12.28 2.58667 12.28 2.56ZM7.88 9.28C7.81333 9.33333 7.76 9.38667 7.72 9.44C7.68 9.48 7.65333 9.54667 7.64 9.64C7.73333 9.64 7.79333 9.62 7.82 9.58C7.86 9.52667 7.89333 9.47333 7.92 9.42C7.93333 9.40667 7.92667 9.38667 7.9 9.36C7.88667 9.33333 7.88 9.30667 7.88 9.28ZM7.36 10C7.32 10.0933 7.26667 10.1867 7.2 10.28C7.26667 10.2533 7.32667 10.2267 7.38 10.2C7.44667 10.1733 7.46667 10.1133 7.44 10.02C7.41333 10.02 7.38667 10.0133 7.36 10ZM6.94 9.36C6.88667 9.41333 6.81333 9.46667 6.72 9.52C6.86667 9.56 6.94 9.50667 6.94 9.36ZM4.38 14.68C4.27333 14.7067 4.21333 14.74 4.2 14.78C4.2 14.82 4.21333 14.8733 4.24 14.94C4.32 14.9133 4.36 14.88 4.36 14.84C4.36 14.8 4.36667 14.7467 4.38 14.68ZM4.18 15.1C4.16667 15.1 4.14 15.12 4.1 15.16C4.1 15.1733 4.10667 15.1867 4.12 15.2C4.14667 15.1867 4.17333 15.18 4.2 15.18C4.22667 15.18 4.26667 15.1667 4.32 15.14C4.22667 15.1133 4.18 15.1 4.18 15.1ZM3.86 15.76C3.83333 15.8133 3.82 15.8667 3.82 15.92C3.83333 15.9733 3.85333 16.0333 3.88 16.1C3.90667 16.06 3.93333 16.0267 3.96 16C4 15.9733 4.04 15.9467 4.08 15.92C3.97333 15.8267 3.94 15.7467 3.98 15.68C4.03333 15.6133 4.07333 15.5467 4.1 15.48C4.00667 15.44 3.94 15.4667 3.9 15.56C3.88667 15.5867 3.88 15.62 3.88 15.66C3.89333 15.7 3.88667 15.7333 3.86 15.76ZM3.76 16.2C3.74667 16.2267 3.74 16.26 3.74 16.3C3.74 16.3133 3.75333 16.32 3.78 16.32H3.8C3.8 16.2933 3.8 16.2733 3.8 16.26C3.81333 16.2467 3.82 16.2267 3.82 16.2H3.76ZM3.68 16.42C3.66667 16.4467 3.65333 16.4667 3.64 16.48C3.64 16.48 3.63333 16.4933 3.62 16.52C3.63333 16.52 3.64 16.5267 3.64 16.54C3.65333 16.5533 3.66667 16.56 3.68 16.56C3.72 16.52 3.75333 16.4933 3.78 16.48C3.76667 16.4667 3.75333 16.46 3.74 16.46C3.74 16.46 3.73333 16.4533 3.72 16.44C3.70667 16.44 3.69333 16.4333 3.68 16.42ZM3.58 16.74C3.55333 16.7933 3.54 16.8333 3.54 16.86C3.54 16.9 3.55333 16.92 3.58 16.92C3.58 16.92 3.59333 16.9133 3.62 16.9C3.63333 16.9 3.64 16.8933 3.64 16.88C3.64 16.8533 3.63333 16.8333 3.62 16.82C3.60667 16.8067 3.59333 16.78 3.58 16.74ZM3.52 20.1C3.53333 20.0867 3.54667 20.08 3.56 20.08C3.57333 20.0667 3.58667 20.0533 3.6 20.04C3.56 20 3.54 19.9733 3.54 19.96C3.51333 19.9867 3.5 20.0067 3.5 20.02C3.5 20.02 3.48667 20.0333 3.46 20.06C3.46 20.06 3.47333 20.0667 3.5 20.08L3.52 20.1ZM3.68 19.7C3.68 19.6333 3.68 19.5733 3.68 19.52C3.68 19.4667 3.68667 19.4067 3.7 19.34C3.56667 19.38 3.51333 19.4467 3.54 19.54C3.56667 19.5667 3.57333 19.6067 3.56 19.66C3.56 19.7 3.6 19.7133 3.68 19.7ZM4.06 18.02C4.08667 17.9 4.11333 17.78 4.14 17.66C4.18 17.5267 4.21333 17.3933 4.24 17.26C4.14667 17.2733 4.09333 17.2867 4.08 17.3C4.06667 17.3 4.04667 17.3333 4.02 17.4C3.99333 17.52 3.96 17.64 3.92 17.76C3.88 17.88 3.84667 18 3.82 18.12C3.79333 18.2267 3.76667 18.3267 3.74 18.42C3.71333 18.5 3.68667 18.5933 3.66 18.7C3.66 18.7667 3.66 18.84 3.66 18.92C3.67333 18.9867 3.68 19.0533 3.68 19.12C3.72 19.0933 3.75333 19.06 3.78 19.02C3.80667 18.9667 3.83333 18.92 3.86 18.88C3.91333 18.7467 3.93333 18.6267 3.92 18.52C3.90667 18.4533 3.9 18.3933 3.9 18.34C3.9 18.2867 3.92667 18.24 3.98 18.2C4.00667 18.1733 4.02 18.1467 4.02 18.12C4.03333 18.08 4.04667 18.0467 4.06 18.02ZM4.34 17.04C4.44667 16.8533 4.5 16.6533 4.5 16.44C4.38 16.3733 4.31333 16.3867 4.3 16.48C4.27333 16.56 4.24667 16.64 4.22 16.72C4.20667 16.8 4.18667 16.88 4.16 16.96C4.16 16.9867 4.16 17.0133 4.16 17.04C4.17333 17.0667 4.18667 17.08 4.2 17.08C4.22667 17.08 4.25333 17.08 4.28 17.08C4.30667 17.08 4.32667 17.0667 4.34 17.04ZM4.44 15.94C4.41333 16.0867 4.41333 16.1733 4.44 16.2C4.46667 16.2133 4.54 16.2 4.66 16.16C4.63333 16.0933 4.61333 16.0533 4.6 16.04C4.58667 16.0133 4.53333 15.98 4.44 15.94ZM4.76 15.8C4.81333 15.6933 4.86 15.5867 4.9 15.48C4.95333 15.36 5.00667 15.24 5.06 15.12C4.95333 15.1067 4.88 15.12 4.84 15.16C4.8 15.1867 4.76667 15.2467 4.74 15.34C4.74 15.3667 4.73333 15.3933 4.72 15.42C4.72 15.4467 4.70667 15.4667 4.68 15.48C4.61333 15.5333 4.57333 15.5933 4.56 15.66C4.54667 15.7133 4.54667 15.7733 4.56 15.84C4.66667 15.9067 4.73333 15.8933 4.76 15.8ZM5.68 12.32C5.74667 12.3467 5.79333 12.2933 5.82 12.16C5.79333 12.1733 5.77333 12.1867 5.76 12.2C5.74667 12.2 5.72667 12.2 5.7 12.2H5.62C5.62 12.1333 5.62 12.0733 5.62 12.02C5.63333 11.9533 5.66 11.9067 5.7 11.88C5.72667 11.8533 5.77333 11.84 5.84 11.84C5.90667 11.84 5.97333 11.8333 6.04 11.82V11.8C6.04 11.7867 6.04 11.78 6.04 11.78C6.05333 11.78 6.06 11.7733 6.06 11.76C6.00667 11.6533 5.98 11.5667 5.98 11.5C5.99333 11.42 6.01333 11.3467 6.04 11.28C6.06667 11.2533 6.08 11.2267 6.08 11.2C6.09333 11.1733 6.11333 11.1467 6.14 11.12C6.18 11.0133 6.21333 10.9067 6.24 10.8C6.26667 10.6933 6.31333 10.6067 6.38 10.54C6.48667 10.4333 6.56 10.3133 6.6 10.18C6.64 10.0467 6.69333 9.92 6.76 9.8C6.76 9.8 6.76 9.76667 6.76 9.7C6.74667 9.7 6.73333 9.69333 6.72 9.68C6.68 9.74667 6.62667 9.80667 6.56 9.86C6.50667 9.9 6.47333 9.96 6.46 10.04C6.38 10.3333 6.23333 10.5867 6.02 10.8C6.02 10.8 6.00667 10.8267 5.98 10.88C5.91333 11.0267 5.84667 11.1733 5.78 11.32C5.71333 11.4667 5.64667 11.6133 5.58 11.76C5.52667 11.84 5.48 11.9267 5.44 12.02C5.4 12.1 5.36667 12.1733 5.34 12.24C5.27333 12.3333 5.22 12.4267 5.18 12.52C5.14 12.6 5.09333 12.6867 5.04 12.78C5.01333 12.8067 5 12.84 5 12.88C5.01333 12.9067 5.01333 12.9533 5 13.02C5.08 12.9667 5.14 12.9267 5.18 12.9C5.23333 12.86 5.29333 12.8267 5.36 12.8C5.33333 12.6933 5.32 12.6267 5.32 12.6C5.32 12.5733 5.34 12.5333 5.38 12.48C5.42 12.4533 5.45333 12.4133 5.48 12.36C5.52 12.3067 5.58667 12.2933 5.68 12.32ZM6.76 11.52C6.86667 11.3733 6.94 11.22 6.98 11.06C7.03333 10.8867 7.1 10.7133 7.18 10.54C7.11333 10.54 7.06667 10.56 7.04 10.6C7.01333 10.64 6.98667 10.68 6.96 10.72C6.94667 10.76 6.92 10.7933 6.88 10.82C6.85333 10.8467 6.81333 10.86 6.76 10.86C6.78667 10.9133 6.8 10.96 6.8 11C6.8 11.04 6.80667 11.0733 6.82 11.1C6.72667 11.1267 6.66 11.1667 6.62 11.22C6.59333 11.2733 6.56667 11.3333 6.54 11.4C6.47333 11.52 6.42 11.64 6.38 11.76C6.35333 11.88 6.29333 11.9933 6.2 12.1C6.14667 12.18 6.09333 12.26 6.04 12.34C6 12.42 5.96 12.5067 5.92 12.6C5.94667 12.6 5.96 12.6133 5.96 12.64C6 12.6267 6.03333 12.62 6.06 12.62C6.1 12.62 6.13333 12.6067 6.16 12.58C6.24 12.4733 6.32 12.3733 6.4 12.28C6.48 12.1867 6.53333 12.0733 6.56 11.94C6.58667 11.86 6.60667 11.7867 6.62 11.72C6.64667 11.64 6.69333 11.5733 6.76 11.52ZM7.14 13C7.11333 13.0533 7.08667 13.1 7.06 13.14C7.18 13.14 7.26667 13.1333 7.32 13.12C7.48 13.0533 7.64 12.9867 7.8 12.92C7.96 12.8533 8.12667 12.7867 8.3 12.72C8.54 12.6133 8.76667 12.5067 8.98 12.4C9.19333 12.2933 9.41333 12.18 9.64 12.06C9.98667 11.86 10.3333 11.66 10.68 11.46C11.04 11.2467 11.3933 11.0333 11.74 10.82C11.9533 10.7133 12.1533 10.6 12.34 10.48C12.54 10.3467 12.7333 10.2133 12.92 10.08C13.04 10 13.16 9.92 13.28 9.84C13.4 9.76 13.5267 9.66667 13.66 9.56C13.8467 9.41333 14.04 9.28 14.24 9.16C14.4533 9.04 14.6533 8.89333 14.84 8.72C15 8.56 15.1667 8.41333 15.34 8.28C15.5267 8.13333 15.7133 7.98667 15.9 7.84C16.2467 7.49333 16.5733 7.13333 16.88 6.76C17.1867 6.38667 17.4533 5.97333 17.68 5.52C17.7867 5.33333 17.88 5.13333 17.96 4.92C18.04 4.70667 18.08 4.48 18.08 4.24C18.0933 4.08 18.0933 3.92 18.08 3.76C18.0667 3.6 18.0467 3.44 18.02 3.28C17.9933 3.02667 17.86 2.88 17.62 2.84C17.4333 2.81333 17.24 2.77333 17.04 2.72C16.84 2.65333 16.64 2.64 16.44 2.68C16.4 2.69333 16.3467 2.68667 16.28 2.66C16.24 2.66 16.2 2.66 16.16 2.66C16.12 2.64667 16.0867 2.64 16.06 2.64C15.9 2.66667 15.74 2.69333 15.58 2.72C15.4333 2.73333 15.28 2.75333 15.12 2.78C14.9467 2.82 14.7733 2.86667 14.6 2.92C14.4267 2.96 14.2533 2.99333 14.08 3.02C13.88 3.04667 13.6933 3.1 13.52 3.18C13.3467 3.26 13.1733 3.33333 13 3.4C12.88 3.45333 12.76 3.50667 12.64 3.56C12.52 3.61333 12.3933 3.66 12.26 3.7C12.1533 3.72667 12.0467 3.76 11.94 3.8C11.8467 3.84 11.7533 3.88667 11.66 3.94C11.5533 3.99333 11.4467 4.04 11.34 4.08C11.2333 4.12 11.1333 4.16667 11.04 4.22C10.8667 4.3 10.6933 4.38 10.52 4.46C10.36 4.54 10.2 4.63333 10.04 4.74C9.97333 4.78 9.9 4.81333 9.82 4.84C9.74 4.86667 9.69333 4.94 9.68 5.06C9.76 5.06 9.81333 5.06667 9.84 5.08C9.90667 5.10667 9.97333 5.12667 10.04 5.14C10.12 5.15333 10.1733 5.18 10.2 5.22C10.2667 5.32667 10.3467 5.41333 10.44 5.48C10.5333 5.53333 10.6133 5.6 10.68 5.68C10.72 5.74667 10.7667 5.81333 10.82 5.88C10.8733 5.93333 10.9067 5.99333 10.92 6.06C10.9467 6.16667 10.96 6.26667 10.96 6.36C10.96 6.45333 10.9267 6.54 10.86 6.62C10.8333 6.67333 10.8333 6.72667 10.86 6.78C10.9 6.98 10.84 7.14667 10.68 7.28C10.5733 7.37333 10.4867 7.48667 10.42 7.62C10.3667 7.75333 10.2867 7.87333 10.18 7.98C10.0733 8.08667 9.98667 8.2 9.92 8.32C9.86667 8.42667 9.76667 8.51333 9.62 8.58C9.51333 8.64667 9.42667 8.73333 9.36 8.84C9.29333 8.93333 9.27333 9.05333 9.3 9.2C9.3 9.32 9.25333 9.4 9.16 9.44C9.13333 9.46667 9.10667 9.48667 9.08 9.5C9.05333 9.5 9.02667 9.51333 9 9.54C8.88 9.58 8.84667 9.66 8.9 9.78C8.91333 9.80667 8.92 9.83333 8.92 9.86C8.92 9.87333 8.92667 9.89333 8.94 9.92C8.88667 9.93333 8.84 9.94 8.8 9.94C8.76 9.94 8.72667 9.94667 8.7 9.96C8.7 9.98667 8.7 10.02 8.7 10.06C8.7 10.1 8.69333 10.1333 8.68 10.16C8.65333 10.2 8.58667 10.2467 8.48 10.3C8.50667 10.34 8.52667 10.38 8.54 10.42C8.55333 10.4467 8.57333 10.48 8.6 10.52C8.49333 10.5867 8.38667 10.6533 8.28 10.72C8.17333 10.7867 8.11333 10.8933 8.1 11.04C8.11333 11.0667 8.14667 11.0933 8.2 11.12V11.14C8.2 11.1533 8.19333 11.16 8.18 11.16C8.18 11.16 8.18 11.1667 8.18 11.18C8.11333 11.22 8.04667 11.2667 7.98 11.32C7.92667 11.3733 7.84667 11.44 7.74 11.52C7.79333 11.5467 7.84 11.5667 7.88 11.58C7.92 11.5933 7.95333 11.6067 7.98 11.62C7.91333 11.7267 7.86 11.78 7.82 11.78C7.74 11.78 7.67333 11.8333 7.62 11.94C7.60667 11.9667 7.6 11.9933 7.6 12.02C7.6 12.0333 7.59333 12.0467 7.58 12.06C7.46 12.1533 7.38667 12.2667 7.36 12.4C7.33333 12.5333 7.27333 12.6533 7.18 12.76C7.15333 12.7867 7.14 12.8267 7.14 12.88C7.15333 12.92 7.15333 12.96 7.14 13ZM17 6.94C16.9733 6.91333 16.9467 6.89333 16.92 6.88C16.8933 6.90667 16.8733 6.93333 16.86 6.96C16.86 6.97333 16.88 7 16.92 7.04C16.9467 7 16.9733 6.96667 17 6.94ZM15.44 8.56C15.4267 8.54667 15.42 8.53333 15.42 8.52C15.38 8.53333 15.3333 8.55333 15.28 8.58C15.3067 8.59333 15.32 8.60667 15.32 8.62C15.32 8.62 15.3267 8.62667 15.34 8.64C15.38 8.6 15.4133 8.57333 15.44 8.56ZM14.42 9.38C14.3933 9.36667 14.3733 9.35333 14.36 9.34C14.36 9.32667 14.3533 9.32 14.34 9.32C14.3267 9.32 14.3133 9.32667 14.3 9.34C14.2867 9.35333 14.2867 9.36667 14.3 9.38C14.3 9.38 14.3133 9.40667 14.34 9.46L14.42 9.38ZM13.96 9.7C13.7733 9.72667 13.6667 9.79333 13.64 9.9C13.7867 9.9 13.8933 9.83333 13.96 9.7ZM13.46 9.94C13.3533 10.0333 13.26 10.12 13.18 10.2C13.1 10.2667 13.0067 10.3333 12.9 10.4C13.02 10.4 13.1333 10.36 13.24 10.28C13.36 10.1867 13.4333 10.0733 13.46 9.94ZM12.82 10.6C12.8867 10.56 12.9133 10.4933 12.9 10.4C12.58 10.5867 12.26 10.7733 11.94 10.96C11.6333 11.1333 11.3267 11.3267 11.02 11.54C11.02 11.62 11.0667 11.6333 11.16 11.58C11.28 11.5133 11.4 11.4467 11.52 11.38C11.64 11.3 11.7667 11.2267 11.9 11.16C12.06 11.0533 12.2133 10.96 12.36 10.88C12.5067 10.7867 12.66 10.6933 12.82 10.6ZM10.96 11.7C10.7333 11.6733 10.6 11.6733 10.56 11.7C10.5333 11.7133 10.5333 11.7733 10.56 11.88C10.7467 11.8533 10.88 11.7933 10.96 11.7ZM10.52 11.98C10.4533 11.9533 10.4067 11.9333 10.38 11.92C10.3533 11.9067 10.3267 11.9 10.3 11.9C10.2733 11.9133 10.2467 11.9267 10.22 11.94C10.2067 11.94 10.1867 11.9533 10.16 11.98V12.06C10.2133 12.1267 10.26 12.14 10.3 12.1C10.3267 12.0867 10.3533 12.0733 10.38 12.06C10.4067 12.0333 10.4533 12.0067 10.52 11.98ZM7.26 13.44C7.28667 13.5067 7.32 13.5467 7.36 13.56C7.4 13.56 7.44667 13.5533 7.5 13.54C7.79333 13.4333 8.02667 13.3333 8.2 13.24C8.33333 13.1733 8.46 13.1133 8.58 13.06C8.7 12.9933 8.81333 12.9267 8.92 12.86C9.02667 12.8067 9.13333 12.76 9.24 12.72C9.36 12.68 9.47333 12.6267 9.58 12.56C9.63333 12.52 9.69333 12.48 9.76 12.44C9.82667 12.3867 9.89333 12.3267 9.96 12.26C9.92 12.2333 9.88 12.2133 9.84 12.2C9.81333 12.1867 9.78 12.2 9.74 12.24C9.60667 12.3333 9.48 12.42 9.36 12.5C9.25333 12.58 9.12 12.6333 8.96 12.66C8.93333 12.66 8.90667 12.6733 8.88 12.7C8.86667 12.7133 8.84667 12.7267 8.82 12.74C8.78 12.7667 8.74 12.7867 8.7 12.8C8.67333 12.8133 8.64 12.8333 8.6 12.86C8.54667 12.8867 8.48667 12.9067 8.42 12.92C8.36667 12.9333 8.31333 12.9533 8.26 12.98C8.1 13.0867 7.94 13.1733 7.78 13.24C7.62 13.3067 7.44667 13.3733 7.26 13.44ZM8.72 13.96C8.68 13.9867 8.63333 14.02 8.58 14.06C8.54 14.0867 8.54 14.1467 8.58 14.24C8.67333 14.2133 8.75333 14.1867 8.82 14.16C8.88667 14.12 8.97333 14.16 9.08 14.28C9.06667 14.2133 9.06 14.16 9.06 14.12C9.06 14.08 9.05333 14.04 9.04 14C9.16 13.96 9.28 13.9267 9.4 13.9C9.52 13.86 9.64 13.82 9.76 13.78L9.84 13.7C9.88 13.6733 9.92 13.6467 9.96 13.62C10 13.58 10.0467 13.5467 10.1 13.52C10.2867 13.4133 10.4733 13.3133 10.66 13.22C10.8467 13.1267 11.0267 13.0133 11.2 12.88C11.2667 12.8267 11.34 12.78 11.42 12.74C11.5133 12.7 11.6 12.66 11.68 12.62C11.7467 12.5533 11.82 12.5 11.9 12.46C11.98 12.4067 12.0667 12.3533 12.16 12.3C12.4267 12.14 12.6867 11.9867 12.94 11.84C13.2067 11.68 13.4733 11.52 13.74 11.36C13.8067 11.3067 13.8733 11.2533 13.94 11.2C14.02 11.1467 14.0933 11.0933 14.16 11.04C14.28 10.9467 14.3933 10.86 14.5 10.78C14.62 10.6867 14.74 10.5867 14.86 10.48C14.9267 10.4133 14.9267 10.34 14.86 10.26C14.7933 10.2867 14.72 10.3067 14.64 10.32C14.56 10.3333 14.5067 10.3933 14.48 10.5C14.48 10.5533 14.4467 10.58 14.38 10.58C14.2467 10.5667 14.1467 10.6 14.08 10.68C14.0133 10.76 13.9467 10.8267 13.88 10.88C13.7867 10.9467 13.72 10.9867 13.68 11C13.6533 11 13.5667 10.9533 13.42 10.86C13.4733 10.8467 13.5133 10.84 13.54 10.84C13.5667 10.8267 13.5933 10.8133 13.62 10.8C13.6867 10.7733 13.76 10.7533 13.84 10.74C13.92 10.7133 13.9733 10.6667 14 10.6C14.0667 10.4933 14.1467 10.42 14.24 10.38C14.3467 10.3267 14.44 10.2533 14.52 10.16C14.56 10.12 14.6 10.08 14.64 10.04C14.68 9.98667 14.7267 9.94 14.78 9.9C14.8333 9.87333 14.8733 9.84 14.9 9.8C14.94 9.76 14.98 9.72667 15.02 9.7C15.1267 9.64667 15.2267 9.59333 15.32 9.54C15.4133 9.48667 15.4733 9.39333 15.5 9.26L15.56 9.2C15.6267 9.18667 15.68 9.16 15.72 9.12C15.76 9.08 15.8 9.04 15.84 9C15.88 8.94667 15.92 8.9 15.96 8.86C16.0133 8.82 16.0733 8.8 16.14 8.8C16.14 8.8 16.16 8.78 16.2 8.74C16.24 8.67333 16.2733 8.61333 16.3 8.56C16.34 8.49333 16.3867 8.43333 16.44 8.38C16.48 8.32667 16.5067 8.26667 16.52 8.2C16.5467 8.13333 16.6133 8.09333 16.72 8.08C16.7333 8.08 16.74 8.07333 16.74 8.06C16.74 8.03333 16.7467 8.01333 16.76 8C16.7867 7.94667 16.8133 7.9 16.84 7.86C16.88 7.82 16.9133 7.78 16.94 7.74C16.9667 7.68667 17 7.64667 17.04 7.62C17.08 7.58 17.1067 7.53333 17.12 7.48C17.2 7.22667 17.36 7.05333 17.6 6.96V6.92L17.56 6.88C17.52 6.90667 17.4733 6.92667 17.42 6.94C17.38 6.95333 17.3467 6.98 17.32 7.02C17.2533 7.08667 17.18 7.14 17.1 7.18C17.02 7.20667 16.9467 7.24667 16.88 7.3C16.8 7.36667 16.7133 7.42667 16.62 7.48C16.54 7.53333 16.4667 7.6 16.4 7.68C16.3467 7.74667 16.3 7.80667 16.26 7.86C16.22 7.91333 16.1667 7.96667 16.1 8.02C15.9533 8.18 15.8 8.34667 15.64 8.52C15.48 8.68 15.3133 8.83333 15.14 8.98C14.8733 9.19333 14.6067 9.4 14.34 9.6C14.0733 9.8 13.8067 10 13.54 10.2C13.3667 10.32 13.2 10.44 13.04 10.56C12.88 10.6667 12.72 10.7733 12.56 10.88C12.4267 10.9733 12.2867 11.0667 12.14 11.16C12.0067 11.24 11.8667 11.3267 11.72 11.42C11.5733 11.5 11.44 11.58 11.32 11.66C11.2133 11.74 11.0867 11.82 10.94 11.9C10.8067 11.9667 10.6733 12.0333 10.54 12.1C10.42 12.1533 10.3 12.22 10.18 12.3C9.80667 12.5933 9.39333 12.8333 8.94 13.02C8.7 13.1267 8.46667 13.2333 8.24 13.34C8.02667 13.4467 7.8 13.5533 7.56 13.66C7.53333 13.6867 7.51333 13.7133 7.5 13.74C7.59333 13.86 7.69333 13.98 7.8 14.1C7.90667 14.22 8.00667 14.3333 8.1 14.44C8.16667 14.4133 8.22667 14.3867 8.28 14.36C8.34667 14.3333 8.40667 14.3067 8.46 14.28C8.46 14.24 8.44667 14.2 8.42 14.16C8.40667 14.1067 8.40667 14.0667 8.42 14.04C8.43333 14.0133 8.46 13.9933 8.5 13.98C8.54 13.9667 8.57333 13.9467 8.6 13.92C8.68 13.8667 8.70667 13.7933 8.68 13.7C8.8 13.7267 8.94 13.7467 9.1 13.76C9.07333 13.7867 9.05333 13.8133 9.04 13.84C9.02667 13.8533 9.00667 13.8667 8.98 13.88C8.94 13.9067 8.89333 13.92 8.84 13.92C8.8 13.92 8.76 13.9333 8.72 13.96ZM10.12 18.58C10.0667 18.5267 10.04 18.5 10.04 18.5C10.04 18.5 10.0133 18.5133 9.96 18.54C9.97333 18.58 10 18.6067 10.04 18.62L10.12 18.58ZM14.42 22.74C14.4467 22.66 14.4467 22.6 14.42 22.56C14.3933 22.52 14.32 22.4733 14.2 22.42C14.24 22.4867 14.2667 22.54 14.28 22.58C14.3067 22.6333 14.3333 22.68 14.36 22.72C14.3867 22.72 14.4067 22.7267 14.42 22.74ZM11.44 19.94C11.4267 19.8733 11.4133 19.82 11.4 19.78C11.4 19.74 11.4 19.7067 11.4 19.68C11.28 19.6133 11.1667 19.5467 11.06 19.48C10.9667 19.4133 10.8667 19.3467 10.76 19.28L10.72 19.32C10.7467 19.4 10.7667 19.4467 10.78 19.46C10.8467 19.4733 10.9 19.5 10.94 19.54C10.9933 19.58 11.0333 19.6267 11.06 19.68C11.0867 19.7333 11.1133 19.7867 11.14 19.84C11.18 19.88 11.22 19.9333 11.26 20L11.44 19.94ZM11.78 20.86C11.7667 20.86 11.7533 20.86 11.74 20.86C11.7267 20.8467 11.7133 20.84 11.7 20.84L11.64 21.02C11.6533 21.02 11.6667 21.0267 11.68 21.04C11.6933 21.04 11.7067 21.04 11.72 21.04L11.78 20.86ZM11.7 20.54C11.7133 20.54 11.7267 20.5333 11.74 20.52C11.7133 20.4667 11.6867 20.4267 11.66 20.4C11.66 20.4 11.6467 20.4133 11.62 20.44C11.6467 20.4667 11.66 20.4867 11.66 20.5C11.6733 20.5133 11.6867 20.5267 11.7 20.54ZM11.96 21.32C11.9867 21.2933 12 21.28 12 21.28C11.9867 21.2533 11.98 21.2333 11.98 21.22C11.98 21.2067 11.9733 21.1867 11.96 21.16C11.96 21.16 11.9333 21.1733 11.88 21.2C11.9067 21.2267 11.9333 21.2667 11.96 21.32ZM12.68 22.02C12.72 21.9667 12.74 21.9267 12.74 21.9C12.7533 21.86 12.7733 21.8267 12.8 21.8C12.7467 21.8133 12.7 21.8267 12.66 21.84C12.62 21.8533 12.6267 21.9133 12.68 22.02ZM13.62 22.36C13.6867 22.2933 13.74 22.2667 13.78 22.28C13.82 22.28 13.8733 22.3067 13.94 22.36C13.9933 22.4267 14.04 22.4533 14.08 22.44C14.1333 22.4133 14.18 22.3733 14.22 22.32C14.14 22.2667 14.1067 22.24 14.12 22.24C14.0133 22.1867 13.9533 22.1533 13.94 22.14C13.94 22.1133 13.9667 22.0533 14.02 21.96L13.96 21.9C13.9333 21.9267 13.9 21.9467 13.86 21.96C13.82 21.96 13.78 21.9733 13.74 22C13.6733 21.9333 13.6067 21.8667 13.54 21.8C13.4867 21.72 13.4267 21.6533 13.36 21.6C13.2133 21.4933 13.0733 21.3867 12.94 21.28C12.8067 21.16 12.6867 21.0267 12.58 20.88C12.5533 20.8533 12.5333 20.84 12.52 20.84C12.4133 20.8267 12.34 20.7867 12.3 20.72C12.26 20.6533 12.24 20.5867 12.24 20.52C12.2267 20.3733 12.1467 20.3 12 20.3C11.8933 20.3 11.8067 20.2467 11.74 20.14C11.7133 20.1133 11.68 20.08 11.64 20.04C11.6 20 11.5467 19.9867 11.48 20C11.5467 20.1333 11.64 20.24 11.76 20.32C11.88 20.3867 11.9333 20.5 11.92 20.66C11.9467 20.6733 11.9733 20.68 12 20.68C12.04 20.6667 12.0733 20.6733 12.1 20.7C12.1133 20.7133 12.12 20.7333 12.12 20.76C12.12 20.7867 12.1267 20.8133 12.14 20.84C12.2867 20.9067 12.3933 20.9467 12.46 20.96C12.5 21.08 12.5333 21.1867 12.56 21.28C12.5867 21.3733 12.6133 21.4733 12.64 21.58C12.8667 21.4067 13.0933 21.48 13.32 21.8L13.2 21.98C13.2667 22.0467 13.3467 22.0933 13.44 22.12C13.5333 22.1467 13.5933 22.2267 13.62 22.36ZM14.02 22.74C13.9933 22.7933 13.9733 22.8267 13.96 22.84C14 22.8533 14.06 22.86 14.14 22.86L14.02 22.74ZM14.16 22.88C14.1333 22.96 14.1333 23.04 14.16 23.12C14.24 23.1467 14.3333 23.1733 14.44 23.2C14.44 23.0667 14.4267 22.9867 14.4 22.96C14.3867 22.9333 14.3067 22.9067 14.16 22.88ZM14.42 23.44C14.4867 23.4133 14.5533 23.4267 14.62 23.48C14.6867 23.5333 14.7533 23.5267 14.82 23.46C14.7933 23.4333 14.7667 23.4 14.74 23.36C14.7267 23.32 14.7067 23.2867 14.68 23.26C14.6267 23.1667 14.5467 23.1533 14.44 23.22C14.44 23.3 14.4333 23.3733 14.42 23.44ZM15.28 24.08C15.3333 24.12 15.3733 24.1267 15.4 24.1C15.44 24.0733 15.4733 24.0333 15.5 23.98C15.46 23.9533 15.42 23.9267 15.38 23.9C15.3533 23.8733 15.32 23.8467 15.28 23.82C15.28 23.86 15.26 23.9 15.22 23.94C15.1933 23.9933 15.2133 24.04 15.28 24.08ZM14.48 22.84C14.6267 22.9867 14.7733 23.1267 14.92 23.26C15.08 23.4067 15.2667 23.52 15.48 23.6C15.4533 23.4933 15.4267 23.4333 15.4 23.42C15.3867 23.4067 15.34 23.3733 15.26 23.32C15.1933 23.28 15.1267 23.2333 15.06 23.18C14.9933 23.14 14.9667 23.0667 14.98 22.96C14.9667 22.96 14.9533 22.9533 14.94 22.94C14.9133 22.9533 14.8867 22.96 14.86 22.96C14.8467 22.96 14.8267 22.9667 14.8 22.98C14.76 22.8867 14.7 22.7867 14.62 22.68C14.5933 22.7067 14.5667 22.7333 14.54 22.76C14.5267 22.7867 14.5067 22.8133 14.48 22.84ZM16.5 23.96C16.4333 24.0267 16.4 24.06 16.4 24.06C16.4133 24.0733 16.46 24.0933 16.54 24.12C16.5133 24.04 16.5 23.9867 16.5 23.96ZM15.64 24.04C15.6133 24.1733 15.6733 24.2267 15.82 24.2C15.7667 24.16 15.7067 24.1067 15.64 24.04ZM15.94 23.76C16.0733 23.7867 16.1933 23.8133 16.3 23.84C16.2867 23.8133 16.28 23.7867 16.28 23.76C16.2933 23.7333 16.2933 23.7133 16.28 23.7C16.24 23.6733 16.2 23.6467 16.16 23.62C16.1333 23.6067 16.1 23.6 16.06 23.6C15.9533 23.5733 15.9133 23.6267 15.94 23.76ZM16.42 24.76C16.4467 24.6933 16.4733 24.6333 16.5 24.58C16.5267 24.5267 16.5533 24.4667 16.58 24.4C16.3933 24.2533 16.28 24.1667 16.24 24.14C16.2 24.1267 16.1333 24.1133 16.04 24.1C16.1067 24.1667 16.1733 24.22 16.24 24.26C16.3067 24.3133 16.3733 24.3733 16.44 24.44C16.3867 24.4667 16.3267 24.5133 16.26 24.58C16.2867 24.62 16.34 24.68 16.42 24.76ZM16.7 24.16C16.7133 24.1733 16.7467 24.1667 16.8 24.14L16.72 24.06C16.7067 24.06 16.6933 24.06 16.68 24.06C16.68 24.0733 16.6733 24.08 16.66 24.08C16.6867 24.1333 16.7 24.16 16.7 24.16ZM17.7 25.14C17.7 25.1267 17.7133 25.1067 17.74 25.08C17.6333 25.0133 17.5333 24.9533 17.44 24.9C17.36 24.8467 17.2733 24.7933 17.18 24.74C17.1533 24.7267 17.12 24.72 17.08 24.72C17.0533 24.7333 17.0133 24.74 16.96 24.74C17.0667 24.8733 17.18 24.9533 17.3 24.98C17.4333 25.02 17.5667 25.0733 17.7 25.14ZM18.12 25.02C18.12 25.0067 18.12 24.9933 18.12 24.98C18.1333 24.98 18.14 24.9667 18.14 24.94C18.14 24.94 18.12 24.9133 18.08 24.86C18.0667 24.8867 18.0533 24.9067 18.04 24.92C18.0267 24.9333 18.02 24.9467 18.02 24.96C18.0333 24.9733 18.0667 24.9933 18.12 25.02ZM19.04 26C19.04 25.9867 19.0533 25.9667 19.08 25.94C19 25.9133 18.94 25.8867 18.9 25.86C18.8867 25.94 18.8933 25.9867 18.92 26C18.9467 26.0133 18.9867 26.0133 19.04 26ZM19.54 26.1C19.4867 26.0467 19.46 26.02 19.46 26.02C19.4333 26.02 19.4067 26.0333 19.38 26.06V26.1H19.54ZM11.1 12.68C11.0867 12.6933 11.0667 12.6933 11.04 12.68C11.0133 12.6667 10.9867 12.66 10.96 12.66C11.04 12.5933 11.1067 12.5267 11.16 12.46C11.2267 12.3933 11.2933 12.3267 11.36 12.26C11.3867 12.2467 11.4 12.24 11.4 12.24C11.4133 12.2267 11.4333 12.2133 11.46 12.2C11.6733 12.1467 11.8933 12.08 12.12 12C12.0933 12.0533 12.0667 12.0867 12.04 12.1C12.0133 12.1133 11.98 12.1333 11.94 12.16C11.8867 12.1867 11.8333 12.2067 11.78 12.22C11.7267 12.2333 11.6867 12.26 11.66 12.3C11.6067 12.42 11.5267 12.5 11.42 12.54C11.3133 12.5667 11.2067 12.6133 11.1 12.68ZM10.08 13.24C10.0133 13.24 9.95333 13.2133 9.9 13.16C9.87333 13.1333 9.86 13.1 9.86 13.06C9.86 13.02 9.85333 12.9867 9.84 12.96C9.90667 12.9333 9.94667 12.9267 9.96 12.94C9.98667 12.94 10.0267 12.9867 10.08 13.08C10.16 13.1067 10.2267 13.1 10.28 13.06C10.3333 13.02 10.3933 12.9733 10.46 12.92C10.5 12.8667 10.5467 12.8267 10.6 12.8C10.6667 12.76 10.7333 12.7133 10.8 12.66C10.8 12.7667 10.8 12.82 10.8 12.82C10.5733 12.9667 10.3333 13.1067 10.08 13.24ZM9.08 13.46C9.01333 13.5 8.94667 13.54 8.88 13.58C8.81333 13.62 8.74667 13.66 8.68 13.7C8.61333 13.7267 8.54 13.7533 8.46 13.78C8.39333 13.7933 8.32667 13.8133 8.26 13.84C8.24667 13.84 8.24 13.8333 8.24 13.82C8.42667 13.7133 8.61333 13.6133 8.8 13.52C9 13.4133 9.18667 13.3067 9.36 13.2C9.34667 13.2667 9.32667 13.3133 9.3 13.34C9.28667 13.3533 9.21333 13.3933 9.08 13.46ZM13.48 11.08C13.4133 11.1467 13.3467 11.22 13.28 11.3C13.2267 11.38 13.1467 11.4267 13.04 11.44C13.04 11.4133 13.0333 11.3867 13.02 11.36C13.02 11.32 13.0133 11.2733 13 11.22C13.1733 11.18 13.3333 11.1333 13.48 11.08ZM9.48 13.48C9.48 13.5867 9.45333 13.6533 9.4 13.68C9.36 13.7067 9.29333 13.7067 9.2 13.68C9.24 13.64 9.28 13.6067 9.32 13.58C9.36 13.5533 9.41333 13.52 9.48 13.48ZM12.58 11.28C12.5933 11.3867 12.5667 11.4467 12.5 11.46C12.4467 11.46 12.4 11.4733 12.36 11.5C12.3867 11.4467 12.4067 11.4067 12.42 11.38C12.4467 11.34 12.5 11.3067 12.58 11.28ZM13.04 11.44C12.9867 11.4933 12.9333 11.54 12.88 11.58C12.8267 11.6067 12.7467 11.6067 12.64 11.58C12.72 11.5533 12.7867 11.5333 12.84 11.52C12.9067 11.4933 12.9733 11.4667 13.04 11.44ZM13.66 10.58C13.66 10.58 13.6333 10.5667 13.58 10.54C13.62 10.5 13.6467 10.48 13.66 10.48C13.66 10.4667 13.68 10.48 13.72 10.52C13.72 10.56 13.7 10.58 13.66 10.58ZM15.96 8.56C15.96 8.57333 15.9467 8.62 15.92 8.7C15.8933 8.67333 15.8733 8.66 15.86 8.66L15.92 8.54C15.92 8.54 15.9333 8.54667 15.96 8.56ZM16.64 7.74C16.6133 7.79333 16.6 7.82667 16.6 7.84L16.58 7.82H16.56C16.56 7.78 16.5733 7.74667 16.6 7.72C16.6 7.72 16.6133 7.72667 16.64 7.74ZM14.64 9.8C14.6133 9.81333 14.5933 9.82667 14.58 9.84C14.58 9.84 14.5667 9.84667 14.54 9.86C14.54 9.84667 14.5333 9.83333 14.52 9.82C14.5467 9.80667 14.5733 9.78667 14.6 9.76C14.6267 9.78667 14.64 9.8 14.64 9.8ZM12.22 11.58C12.22 11.58 12.1933 11.5933 12.14 11.62V11.58L12.2 11.52C12.2 11.5467 12.2067 11.5667 12.22 11.58ZM36.0161 1.52C36.1361 1.56 36.2494 1.6 36.3561 1.64C36.4628 1.68 36.5694 1.72 36.6761 1.76C36.6094 2.02667 36.7228 2.17333 37.0161 2.2C37.2561 2.22667 37.4361 2.31333 37.5561 2.46C37.6894 2.60667 37.8161 2.75333 37.9361 2.9C37.9894 2.98 38.0161 3.05333 38.0161 3.12C38.0294 3.45333 38.0361 3.78667 38.0361 4.12C38.0494 4.44 37.9561 4.77333 37.7561 5.12C37.6094 5.41333 37.4761 5.71333 37.3561 6.02C37.2494 6.32667 37.1094 6.62667 36.9361 6.92C36.7628 7.21333 36.6094 7.50667 36.4761 7.8C36.3428 8.08 36.2028 8.37333 36.0561 8.68C36.0294 8.74667 35.9961 8.8 35.9561 8.84C35.7828 9.06667 35.6561 9.28 35.5761 9.48C35.5094 9.66667 35.4494 9.92 35.3961 10.24C35.3828 10.3067 35.3561 10.3867 35.3161 10.48C35.2894 10.5733 35.2494 10.6667 35.1961 10.76C35.1428 10.8533 35.0894 10.9467 35.0361 11.04C34.9961 11.12 34.9561 11.18 34.9161 11.22C34.8894 11.2467 34.8694 11.2667 34.8561 11.28C34.8428 11.28 34.8294 11.2933 34.8161 11.32C34.8428 11.4667 34.8094 11.5933 34.7161 11.7C34.6228 11.7933 34.5428 11.8933 34.4761 12C34.4228 12.0667 34.3761 12.14 34.3361 12.22C34.3094 12.2867 34.3094 12.3667 34.3361 12.46C34.3494 12.5267 34.3228 12.6 34.2561 12.68C34.2028 12.7467 34.1561 12.82 34.1161 12.9C34.0494 13.0467 33.9961 13.1867 33.9561 13.32C33.9161 13.44 33.8628 13.5733 33.7961 13.72C33.7694 13.7867 33.7361 13.8467 33.6961 13.9C33.6694 13.94 33.6361 13.9867 33.5961 14.04C33.5694 14.08 33.5494 14.1267 33.5361 14.18C33.5361 14.22 33.5228 14.26 33.4961 14.3C33.4961 14.3267 33.5028 14.3533 33.5161 14.38C33.5294 14.3933 33.5228 14.4067 33.4961 14.42C33.4161 14.5133 33.3628 14.6133 33.3361 14.72C33.3228 14.8267 33.3028 14.9333 33.2761 15.04C33.2628 15.1333 33.2361 15.22 33.1961 15.3C33.1561 15.3667 33.1094 15.44 33.0561 15.52C33.0161 15.5867 32.9828 15.66 32.9561 15.74C32.9428 15.8067 32.9161 15.8733 32.8761 15.94C32.8494 16.0067 32.8228 16.0667 32.7961 16.12C32.7694 16.16 32.7428 16.2133 32.7161 16.28C32.6628 16.4267 32.6028 16.58 32.5361 16.74C32.4828 16.8867 32.4228 17.04 32.3561 17.2C32.2094 17.5467 32.0894 17.8933 31.9961 18.24C31.9161 18.5867 31.7894 18.9333 31.6161 19.28C31.5494 19.4267 31.4961 19.5733 31.4561 19.72C31.4294 19.8667 31.3694 20.0067 31.2761 20.14C31.3161 20.2867 31.2961 20.42 31.2161 20.54C31.1494 20.6467 31.0761 20.7533 30.9961 20.86C30.9694 20.9133 30.9561 20.9533 30.9561 20.98C30.9161 21.3667 30.8028 21.7733 30.6161 22.2C30.6028 22.2267 30.5894 22.26 30.5761 22.3C30.5761 22.34 30.5694 22.3733 30.5561 22.4C30.5294 22.5867 30.4961 22.78 30.4561 22.98C30.4161 23.18 30.3828 23.3733 30.3561 23.56C30.3294 23.5867 30.3161 23.6133 30.3161 23.64C30.1561 23.8667 30.0694 24.1 30.0561 24.34C30.0561 24.58 30.0294 24.82 29.9761 25.06C29.8961 25.5267 29.6561 25.9 29.2561 26.18C29.1361 26.1267 29.0094 26.0867 28.8761 26.06C28.7561 26.0333 28.6494 25.98 28.5561 25.9C28.3828 25.74 28.2494 25.5133 28.1561 25.22C27.9961 24.8067 27.9494 24.3467 28.0161 23.84C28.0428 23.5333 28.0561 23.2333 28.0561 22.94C28.0694 22.6467 28.1028 22.3467 28.1561 22.04C28.1961 21.76 28.2494 21.48 28.3161 21.2C28.3828 20.92 28.4561 20.64 28.5361 20.36C28.6828 19.8133 28.8361 19.2733 28.9961 18.74C29.1694 18.2067 29.3494 17.6733 29.5361 17.14C29.7628 16.46 29.9961 15.7867 30.2361 15.12C30.4894 14.4533 30.7428 13.78 30.9961 13.1C31.1428 12.6733 31.2961 12.26 31.4561 11.86C31.6161 11.4467 31.7694 11.0333 31.9161 10.62C31.9561 10.5133 32.0028 10.4067 32.0561 10.3C32.1094 10.18 32.1561 10.0667 32.1961 9.96C32.4761 9.30667 32.7494 8.66 33.0161 8.02C33.2828 7.38 33.5494 6.73333 33.8161 6.08C34.0028 5.62667 34.1894 5.17333 34.3761 4.72C34.5628 4.26667 34.7494 3.81333 34.9361 3.36C34.9494 3.33333 34.9561 3.3 34.9561 3.26C34.9694 3.22 34.9828 3.16 34.9961 3.08C34.8494 3.18667 34.7161 3.28667 34.5961 3.38C34.4894 3.46 34.3961 3.55333 34.3161 3.66C34.1694 3.84667 34.0094 4.02 33.8361 4.18C33.6628 4.34 33.5228 4.53333 33.4161 4.76C33.3894 4.78667 33.3628 4.81333 33.3361 4.84C33.3094 4.86667 33.2828 4.89333 33.2561 4.92C32.6428 5.49333 32.1428 6.12 31.7561 6.8C31.6894 6.90667 31.6028 7.01333 31.4961 7.12C31.4028 7.21333 31.3228 7.31333 31.2561 7.42C31.1094 7.7 30.9361 7.96667 30.7361 8.22C30.5361 8.46 30.3828 8.72667 30.2761 9.02C30.2094 9.22 30.1094 9.40667 29.9761 9.58C29.8428 9.75333 29.7161 9.93333 29.5961 10.12C29.5694 10.1733 29.5361 10.2133 29.4961 10.24C29.4294 10.3067 29.3494 10.3733 29.2561 10.44C29.1628 10.5067 29.1094 10.6133 29.0961 10.76C29.0961 10.7867 29.0694 10.8133 29.0161 10.84C28.9761 10.8667 28.9361 10.8933 28.8961 10.92C28.9228 11.0267 28.9428 11.1267 28.9561 11.22C28.9694 11.3133 28.9894 11.4267 29.0161 11.56C28.8694 11.8 28.7094 12.0533 28.5361 12.32C28.3628 12.5867 28.1961 12.86 28.0361 13.14C27.9294 13.3133 27.8294 13.4933 27.7361 13.68C27.6561 13.8533 27.5694 14.0333 27.4761 14.22C26.9561 15.1933 26.4361 16.16 25.9161 17.12C25.4094 18.08 24.9028 19.0467 24.3961 20.02C24.2894 20.2333 24.1828 20.44 24.0761 20.64C23.9694 20.8267 23.8294 21.0067 23.6561 21.18C23.5894 21.2467 23.5228 21.3067 23.4561 21.36C23.4028 21.4 23.3494 21.4467 23.2961 21.5C23.2028 21.5667 23.1094 21.6133 23.0161 21.64C22.9228 21.6667 22.8428 21.6333 22.7761 21.54C22.7761 21.54 22.7628 21.5333 22.7361 21.52C22.5494 21.5067 22.4028 21.4667 22.2961 21.4C22.2028 21.32 22.1361 21.2267 22.0961 21.12C22.0561 21 22.0294 20.8733 22.0161 20.74C22.0161 20.6067 22.0161 20.4733 22.0161 20.34C22.0428 20.0867 22.0828 19.84 22.1361 19.6C22.1894 19.3467 22.2494 19.1 22.3161 18.86C22.4628 18.3533 22.6161 17.8533 22.7761 17.36C22.9361 16.8667 23.0894 16.3667 23.2361 15.86C23.3961 15.3267 23.5494 14.7933 23.6961 14.26C23.8561 13.7267 24.0094 13.1933 24.1561 12.66C24.2628 12.2733 24.3628 11.8867 24.4561 11.5C24.5628 11.1 24.6628 10.7067 24.7561 10.32C24.7961 10.1733 24.8294 10.0267 24.8561 9.88C24.8828 9.72 24.9094 9.55333 24.9361 9.38C24.8961 9.40667 24.8628 9.42667 24.8361 9.44C24.8094 9.44 24.7828 9.45333 24.7561 9.48C24.6361 9.66667 24.5161 9.84667 24.3961 10.02C24.2761 10.1933 24.1628 10.3733 24.0561 10.56C23.8294 10.96 23.6161 11.36 23.4161 11.76C23.2161 12.1467 23.0094 12.54 22.7961 12.94C22.5161 13.4467 22.2428 13.9333 21.9761 14.4C21.9094 14.52 21.8428 14.6467 21.7761 14.78C21.7094 14.9 21.6428 15.02 21.5761 15.14C21.4961 15.2333 21.3894 15.34 21.2561 15.46C21.3094 15.62 21.2961 15.7733 21.2161 15.92C21.1494 16.0667 21.0561 16.22 20.9361 16.38C20.8294 16.5267 20.7361 16.6867 20.6561 16.86C20.5761 17.0333 20.4961 17.2067 20.4161 17.38C20.2961 17.6333 20.1761 17.88 20.0561 18.12C19.9361 18.36 19.8361 18.6067 19.7561 18.86C19.6628 19.18 19.5361 19.4933 19.3761 19.8C19.2161 20.0933 19.1228 20.4133 19.0961 20.76C19.0961 20.84 19.0561 20.9267 18.9761 21.02C18.9094 21.1 18.8428 21.1733 18.7761 21.24C18.6694 21.3467 18.6161 21.4467 18.6161 21.54C18.6161 21.6333 18.6361 21.7333 18.6761 21.84C18.7161 22 18.7228 22.1067 18.6961 22.16C18.6828 22.2 18.6228 22.2867 18.5161 22.42C18.4228 22.38 18.3361 22.3467 18.2561 22.32C18.1894 22.28 18.1094 22.2467 18.0161 22.22C17.9361 22.18 17.8628 22.14 17.7961 22.1C17.7161 22.0467 17.6428 21.9667 17.5761 21.86C17.3894 21.5667 17.2761 21.26 17.2361 20.94C17.1961 20.62 17.1961 20.2867 17.2361 19.94C17.3028 19.1533 17.4561 18.3933 17.6961 17.66C17.9361 16.9133 18.2094 16.1667 18.5161 15.42C18.6361 15.1533 18.7494 14.8867 18.8561 14.62C18.9628 14.34 19.0694 14.0667 19.1761 13.8C19.2694 13.6133 19.3628 13.4267 19.4561 13.24C19.5494 13.0533 19.6428 12.8667 19.7361 12.68C19.8961 12.3467 20.0494 12.0133 20.1961 11.68C20.3561 11.3467 20.5228 11.0133 20.6961 10.68C20.9228 10.2267 21.1494 9.78667 21.3761 9.36C21.6028 8.92 21.8361 8.48 22.0761 8.04C22.2894 7.62667 22.5028 7.22667 22.7161 6.84C22.9294 6.44 23.1428 6.03333 23.3561 5.62C23.3828 5.59333 23.4028 5.56 23.4161 5.52C23.4428 5.46667 23.4628 5.42667 23.4761 5.4C23.4228 5.14667 23.5294 4.96667 23.7961 4.86C23.9028 4.82 23.9894 4.76 24.0561 4.68C24.1361 4.58667 24.2494 4.56667 24.3961 4.62C24.4228 4.63333 24.4494 4.63333 24.4761 4.62C24.5161 4.60667 24.5561 4.6 24.5961 4.6C24.6361 4.58667 24.6694 4.59333 24.6961 4.62C24.7228 4.63333 24.7361 4.66667 24.7361 4.72C24.7361 4.74667 24.7628 4.76 24.8161 4.76C25.0028 4.69333 25.1561 4.69333 25.2761 4.76C25.4094 4.82667 25.5428 4.89333 25.6761 4.96C25.7828 5.01333 25.8828 5.06 25.9761 5.1C26.0694 5.14 26.1494 5.19333 26.2161 5.26C26.3094 5.36667 26.4228 5.42667 26.5561 5.44C26.6894 5.45333 26.7961 5.51333 26.8761 5.62C27.0094 5.78 27.0694 5.94 27.0561 6.1C27.0294 6.31333 27.0028 6.52667 26.9761 6.74C26.9494 6.94 26.9094 7.14 26.8561 7.34C26.8294 7.48667 26.7894 7.64 26.7361 7.8C26.6961 7.94667 26.6561 8.09333 26.6161 8.24C26.5094 8.62667 26.4028 9.02 26.2961 9.42C26.1894 9.80667 26.0694 10.1933 25.9361 10.58C25.8694 10.7533 25.8294 10.9267 25.8161 11.1C25.8028 11.2733 25.7628 11.44 25.6961 11.6C25.6294 11.7733 25.5561 11.94 25.4761 12.1C25.4094 12.26 25.3628 12.4267 25.3361 12.6C25.2961 12.7467 25.2628 12.8867 25.2361 13.02C25.2094 13.14 25.1561 13.2667 25.0761 13.4C25.0494 13.4667 25.0494 13.5467 25.0761 13.64C25.0628 13.6667 25.0561 13.7 25.0561 13.74C25.0694 13.78 25.0694 13.8133 25.0561 13.84C24.9894 14.0267 24.9228 14.2067 24.8561 14.38C24.8028 14.54 24.7428 14.7133 24.6761 14.9C24.6228 15.06 24.5761 15.22 24.5361 15.38C24.4961 15.5267 24.4428 15.6733 24.3761 15.82C24.2961 16.02 24.2361 16.22 24.1961 16.42C24.1561 16.62 24.0694 16.8133 23.9361 17C23.9094 17.0267 23.8828 17.0933 23.8561 17.2C23.7894 17.4 23.7294 17.6067 23.6761 17.82C23.6361 18.02 23.5828 18.2267 23.5161 18.44C23.4761 18.5467 23.4294 18.66 23.3761 18.78C23.3228 18.8867 23.2694 18.9933 23.2161 19.1C23.2161 19.1267 23.2094 19.16 23.1961 19.2C23.1961 19.24 23.1828 19.3 23.1561 19.38C23.2228 19.3133 23.2694 19.2667 23.2961 19.24C23.3361 19.2133 23.3694 19.1867 23.3961 19.16C23.6628 18.68 23.9228 18.2 24.1761 17.72C24.4428 17.2267 24.7161 16.7333 24.9961 16.24C25.3294 15.64 25.6628 15.04 25.9961 14.44C26.3428 13.8267 26.6894 13.22 27.0361 12.62C27.3028 12.1533 27.5761 11.6933 27.8561 11.24C28.1494 10.7867 28.4428 10.3333 28.7361 9.88C29.0161 9.42667 29.2961 8.98 29.5761 8.54C29.8694 8.1 30.1628 7.66 30.4561 7.22C30.8428 6.63333 31.2561 6.07333 31.6961 5.54C32.1361 4.99333 32.5961 4.46667 33.0761 3.96C33.4494 3.54667 33.8361 3.16 34.2361 2.8C34.6361 2.42667 35.0694 2.08 35.5361 1.76C35.6161 1.70667 35.6961 1.66 35.7761 1.62C35.8694 1.58 35.9494 1.54667 36.0161 1.52ZM30.4961 16.68C30.4561 16.7067 30.4094 16.7333 30.3561 16.76C30.3028 16.7733 30.2761 16.7933 30.2761 16.82C30.1961 17.02 30.1228 17.22 30.0561 17.42C29.9894 17.62 29.9228 17.8267 29.8561 18.04C29.8294 18.12 29.8094 18.2067 29.7961 18.3C29.7961 18.38 29.7828 18.4667 29.7561 18.56C29.8628 18.5333 29.9494 18.4733 30.0161 18.38C30.0561 18.3 30.0894 18.22 30.1161 18.14C30.1428 18.06 30.1694 17.98 30.1961 17.9C30.2361 17.7933 30.2694 17.6867 30.2961 17.58C30.3228 17.4733 30.3494 17.3667 30.3761 17.26C30.3894 17.1533 30.4028 17.0533 30.4161 16.96C30.4428 16.8667 30.4628 16.7667 30.4761 16.66C30.4894 16.6067 30.4961 16.56 30.4961 16.52C30.5094 16.4667 30.5228 16.4 30.5361 16.32C30.4694 16.4133 30.4361 16.4733 30.4361 16.5C30.4361 16.5267 30.4561 16.5867 30.4961 16.68ZM33.9361 3.76C33.7894 3.74667 33.6494 3.78667 33.5161 3.88C33.3961 3.96 33.3028 4.04 33.2361 4.12C33.1428 4.24 33.0428 4.36 32.9361 4.48C32.8428 4.58667 32.7761 4.71333 32.7361 4.86C32.7094 4.92667 32.6628 4.99333 32.5961 5.06C32.5294 5.12667 32.4628 5.18667 32.3961 5.24C32.3561 5.26667 32.3094 5.27333 32.2561 5.26C32.2161 5.24667 32.1761 5.24 32.1361 5.24C32.1094 5.24 32.0828 5.26667 32.0561 5.32C32.1094 5.42667 32.1428 5.5 32.1561 5.54C31.9028 5.9 31.6761 6.20667 31.4761 6.46C31.4228 6.52667 31.3628 6.58667 31.2961 6.64C31.2428 6.69333 31.1761 6.75333 31.0961 6.82C31.1228 6.87333 31.1294 6.94 31.1161 7.02C31.1161 7.08667 31.0561 7.15333 30.9361 7.22C30.9228 7.16667 30.9161 7.07333 30.9161 6.94C30.8094 7.06 30.7228 7.17333 30.6561 7.28C30.6028 7.37333 30.6494 7.49333 30.7961 7.64C30.7028 7.62667 30.6361 7.63333 30.5961 7.66C30.5561 7.68667 30.5228 7.72667 30.4961 7.78C30.4694 7.82 30.4428 7.86667 30.4161 7.92C30.3894 7.96 30.3494 7.98667 30.2961 8C30.2294 8.02667 30.1694 8.09333 30.1161 8.2C30.0628 8.30667 30.0028 8.4 29.9361 8.48C29.9094 8.6 29.8828 8.72667 29.8561 8.86C29.8294 8.98 29.7961 9.12 29.7561 9.28C29.8628 9.13333 29.9494 9.00667 30.0161 8.9C30.0828 8.78 30.1494 8.66667 30.2161 8.56C30.3494 8.36 30.4761 8.16667 30.5961 7.98C30.7161 7.78 30.8494 7.58667 30.9961 7.4C31.1694 7.16 31.3428 6.92667 31.5161 6.7C31.7028 6.46 31.8894 6.22667 32.0761 6C32.3428 5.64 32.6228 5.28667 32.9161 4.94C33.2094 4.58 33.5028 4.22 33.7961 3.86C33.8228 3.83333 33.8428 3.82 33.8561 3.82C33.8694 3.80667 33.8894 3.78667 33.9161 3.76C33.9828 3.69333 34.0561 3.62667 34.1361 3.56C34.2161 3.48 34.2894 3.40667 34.3561 3.34C34.3294 3.31333 34.3161 3.29333 34.3161 3.28C34.2361 3.32 34.1561 3.36 34.0761 3.4C33.9961 3.42667 33.9228 3.46 33.8561 3.5C33.8694 3.55333 33.8828 3.6 33.8961 3.64C33.9094 3.68 33.9228 3.72 33.9361 3.76ZM29.2561 20.56C29.1094 20.6533 29.0294 20.76 29.0161 20.88C29.0028 21 28.9761 21.1133 28.9361 21.22C28.8961 21.3267 28.8628 21.44 28.8361 21.56C28.8094 21.68 28.7828 21.8 28.7561 21.92C28.8761 21.92 28.9628 21.88 29.0161 21.8C29.0428 21.7333 29.0561 21.6733 29.0561 21.62C29.0561 21.5667 29.0628 21.5067 29.0761 21.44C29.1028 21.2933 29.1294 21.1467 29.1561 21C29.1961 20.8533 29.2294 20.7067 29.2561 20.56ZM29.4361 19.76C29.5028 19.6267 29.5561 19.5133 29.5961 19.42C29.6494 19.3133 29.6894 19.2067 29.7161 19.1C29.7428 19.06 29.7428 19.02 29.7161 18.98C29.6894 18.9267 29.6694 18.88 29.6561 18.84C29.6428 18.84 29.6294 18.8467 29.6161 18.86C29.6028 18.86 29.5894 18.86 29.5761 18.86C29.5761 18.9267 29.5628 19 29.5361 19.08C29.5094 19.1467 29.4828 19.2133 29.4561 19.28C29.4294 19.3467 29.4094 19.42 29.3961 19.5C29.3828 19.58 29.3961 19.6667 29.4361 19.76ZM28.8961 22.08C28.6561 22.32 28.5761 22.64 28.6561 23.04C28.6961 22.88 28.7361 22.7267 28.7761 22.58C28.8161 22.4333 28.8561 22.2667 28.8961 22.08ZM29.1161 20.36C29.2628 20.2933 29.3428 20.24 29.3561 20.2C29.3694 20.16 29.3561 20.06 29.3161 19.9C29.2761 20.0067 29.2361 20.0933 29.1961 20.16C29.1694 20.2267 29.1428 20.2933 29.1161 20.36ZM30.7961 15.38C30.8228 15.38 30.8428 15.3867 30.8561 15.4C30.8694 15.4 30.8894 15.4 30.9161 15.4C31.0094 15.36 31.0428 15.3 31.0161 15.22C30.9894 15.14 30.9761 15.06 30.9761 14.98C30.9494 15.0467 30.9161 15.1133 30.8761 15.18C30.8494 15.2467 30.8228 15.3133 30.7961 15.38ZM34.9161 2.8C34.7694 2.82667 34.6761 2.85333 34.6361 2.88C34.6094 2.90667 34.5694 2.98667 34.5161 3.12C34.5828 3.06667 34.6494 3.02 34.7161 2.98C34.7828 2.92667 34.8494 2.86667 34.9161 2.8ZM30.4761 16.22C30.5961 16.18 30.6694 16.1333 30.6961 16.08C30.7228 16.0133 30.7161 15.9267 30.6761 15.82L30.4761 16.22ZM28.7161 10.32C28.7428 10.2933 28.7694 10.2733 28.7961 10.26C28.8228 10.2333 28.8361 10.2133 28.8361 10.2C28.8361 10.16 28.8094 10.1267 28.7561 10.1C28.7161 10.14 28.6894 10.1733 28.6761 10.2C28.6628 10.2133 28.6761 10.2533 28.7161 10.32Z" fill="#9448BC"/>
</svg>
